<svg width="3590" height="1572" viewBox="0 0 3590 1572" fill="none" xmlns="http://www.w3.org/2000/svg">
<path d="M3590 1572L0.514648 1572L0.514648 0L3590 0L3590 1572Z" fill="#ECECEC"/>
<g clip-path="url(#clip0_1127_11683)">
<path d="M1987 599.016C2004.93 599.016 2020.54 601.587 2034.78 615.713C2050.4 631.404 2059.45 656.338 2059.45 684.85C2059.45 713.362 2050.58 738.073 2033.62 753.987C2018.6 768.113 2004.52 770.424 1986.63 770.424H1953.49V598.979H1987.04L1987 599.016ZM1978.54 741.651H1986.25C1992.63 741.651 2006.49 741.129 2017.67 730.321C2027.88 720.556 2033.66 703.076 2033.66 684.813C2033.66 666.55 2028.07 649.331 2017.86 639.045C2007.46 628.758 1994.75 627.752 1986.25 627.752H1978.54V741.614V741.651Z" fill="#46719D"/>
<path d="M2090.88 593.355C2098.59 593.355 2104.93 601.853 2104.93 612.14C2104.93 622.427 2098.56 630.924 2090.88 630.924C2083.2 630.924 2076.83 622.427 2076.83 612.14C2076.83 601.853 2083.2 593.355 2090.88 593.355ZM2102.62 659.138V770.429H2079.1V659.138H2102.62Z" fill="#46719D"/>
<path d="M2188.93 659.138H2212.45V770.428H2188.93V756.041C2180.43 772.217 2169.29 774.043 2163.29 774.043C2137.65 774.043 2120.73 747.32 2120.73 714.671C2120.73 682.022 2137.5 655.56 2162.13 655.56C2168.51 655.56 2181.03 657.088 2188.93 673.561V659.175V659.138ZM2144.99 714.671C2144.99 732.412 2154.6 746.276 2168.1 746.276C2181.59 746.276 2191.2 732.412 2191.2 714.671C2191.2 696.93 2181.59 683.326 2168.1 683.326C2154.6 683.326 2144.99 696.967 2144.99 714.671Z" fill="#46719D"/>
<path d="M2258.3 673.556C2266.57 658.126 2278.35 655.554 2285.47 655.554C2310.14 655.554 2326.5 681.01 2326.5 714.666C2326.5 748.321 2309.54 774.038 2284.87 774.038C2279.47 774.038 2267.35 772.771 2258.3 756.036V770.422H2234.78V583.025H2258.3V673.519V673.556ZM2255.99 714.666C2255.99 732.406 2265.6 746.271 2279.09 746.271C2292.59 746.271 2302.2 732.406 2302.2 714.666C2302.2 696.925 2292.59 683.321 2279.09 683.321C2265.6 683.321 2255.99 696.962 2255.99 714.666Z" fill="#46719D"/>
<path d="M2426.49 739.336C2423.99 747.572 2414.53 774.035 2385.45 774.035C2371.96 774.035 2361.75 768.891 2353.48 758.344C2344.23 746.79 2340.39 732.366 2340.39 714.886C2340.39 692.784 2347.14 679.143 2353.1 671.205C2362.94 658.346 2374.5 655.514 2384.52 655.514C2401.48 655.514 2411.32 664.496 2417.1 673.776C2425.97 687.902 2427.12 705.382 2427.12 717.458V720.029H2364.7C2364.7 726.701 2366.04 733.894 2368.76 738.776C2371.25 743.398 2376.47 749.324 2385.53 749.324C2394.59 749.324 2401.15 743.659 2404.98 734.677L2426.56 739.298L2426.49 739.336ZM2404.91 700.015C2402.97 684.846 2393.73 677.652 2385.04 677.652C2376.36 677.652 2367.3 685.107 2365.4 700.015H2404.91Z" fill="#46719D"/>
<path d="M2468.69 685.895V770.462H2445.17V685.895H2435.93V659.172H2445.17V621.118H2468.69V659.172H2484.86V685.895H2468.69Z" fill="#46719D"/>
<path d="M2579.08 739.336C2576.59 747.572 2567.12 774.035 2538.05 774.035C2524.56 774.035 2514.34 768.891 2506.07 758.344C2496.83 746.79 2492.99 732.366 2492.99 714.886C2492.99 692.784 2499.73 679.143 2505.7 671.205C2515.54 658.346 2527.09 655.514 2537.12 655.514C2554.07 655.514 2563.91 664.496 2569.69 673.776C2578.56 687.902 2579.72 705.382 2579.72 717.458V720.029H2517.29C2517.29 726.701 2518.63 733.894 2521.35 738.776C2523.85 743.398 2529.07 749.324 2538.12 749.324C2547.18 749.324 2553.74 743.659 2557.58 734.677L2579.16 739.298L2579.08 739.336ZM2557.5 700.015C2555.56 684.846 2546.32 677.652 2537.64 677.652C2528.95 677.652 2519.9 685.107 2518 700.015H2557.5Z" fill="#46719D"/>
<path d="M2643.26 685.635C2637.67 678.703 2632.08 678.181 2629.58 678.181C2623.99 678.181 2620.52 681.759 2620.52 687.163C2620.52 689.996 2621.49 694.356 2628.05 697.189L2633.64 699.5C2640.2 702.332 2650.01 706.693 2654.85 715.451C2657.35 720.073 2659.1 726.782 2659.1 733.975C2659.1 744.001 2656.6 754.027 2649.86 762.263C2643.11 770.5 2635.02 774.078 2624.81 774.078C2607.48 774.078 2597.64 763.009 2592.42 755.555L2604.76 736.547C2609.38 743.74 2616.31 749.405 2623.25 749.405C2629.81 749.405 2634.8 745.044 2634.8 737.329C2634.8 730.397 2630.55 727.564 2627.49 726.036L2622.09 723.465C2616.13 720.632 2609.19 717.054 2604.16 710.085C2600.32 704.68 2597.79 697.748 2597.79 688.766C2597.79 677.957 2601.63 668.975 2606.47 663.571C2613.03 656.638 2621.49 655.595 2628.24 655.595C2634.39 655.595 2644.23 656.638 2654.81 667.41L2643.26 685.672V685.635Z" fill="#46719D"/>
<path d="M1966.65 849.514C1976.97 849.514 1985.99 851.004 1994.23 859.167C2003.25 868.224 2008.47 882.61 2008.47 899.046C2008.47 915.483 2003.36 929.758 1993.56 938.963C1984.87 947.126 1976.79 948.467 1966.42 948.467H1947.3V849.551H1966.65V849.514ZM1961.73 931.807H1966.16C1969.82 931.807 1977.83 931.509 1984.28 925.285C1990.17 919.657 1993.52 909.557 1993.52 899.046C1993.52 888.536 1990.28 878.585 1984.39 872.659C1978.39 866.733 1971.05 866.136 1966.16 866.136H1961.73V931.845V931.807Z" fill="#46719D"/>
<path d="M2026.55 846.232C2030.98 846.232 2034.67 851.115 2034.67 857.078C2034.67 863.042 2031.02 867.924 2026.55 867.924C2022.08 867.924 2018.42 863.042 2018.42 857.078C2018.42 851.115 2022.08 846.232 2026.55 846.232ZM2033.33 884.211V948.429H2019.76V884.211H2033.33Z" fill="#46719D"/>
<path d="M2082.9 884.218H2096.46V945.491C2096.46 955.293 2095.79 965.505 2089.79 973.518C2086.48 977.954 2080.66 982.575 2070.78 982.575C2061.43 982.575 2055.88 978.848 2052.78 975.158C2049.02 970.872 2046.11 963.306 2044.99 956.038H2059.68C2060.24 959.02 2061.47 961.964 2063 963.753C2065.68 967.033 2069.33 967.182 2071.23 967.182C2075.11 967.182 2077.68 965.393 2079.47 963.157C2082.6 959.169 2082.9 954.1 2082.9 948.92V939.863C2078.24 949.367 2071.79 950.56 2068.1 950.56C2061.65 950.56 2056.1 947.876 2051.44 941.801C2047.9 937.068 2043.76 928.756 2043.76 916.308C2043.76 906.207 2046.56 896.89 2051.22 890.815C2055.43 885.336 2061.32 882.205 2067.8 882.205C2076.82 882.205 2081.03 888.727 2082.94 892.604V884.292L2082.9 884.218ZM2062.1 902.592C2059.86 905.276 2057.78 909.562 2057.78 916.233C2057.78 921.861 2059.34 926.035 2061.32 928.831C2064.23 932.968 2067.88 934.459 2071.08 934.459C2074.29 934.459 2077.75 932.819 2080.1 930.023C2082.9 926.594 2084.43 921.414 2084.43 916.233C2084.43 910.158 2082.41 905.984 2080.55 903.338C2077.87 899.61 2074.77 898.157 2071.08 898.157C2066.76 898.157 2063.74 900.542 2062.06 902.592H2062.1Z" fill="#46719D"/>
<path d="M2116.14 846.232C2120.58 846.232 2124.27 851.115 2124.27 857.078C2124.27 863.042 2120.62 867.924 2116.14 867.924C2111.67 867.924 2108.02 863.042 2108.02 857.078C2108.02 851.115 2111.67 846.232 2116.14 846.232ZM2122.93 884.211V948.429H2109.36V884.211H2122.93Z" fill="#46719D"/>
<path d="M2149.39 899.647V948.434H2135.82V899.647H2130.49V884.217H2135.82V862.265H2149.39V884.217H2158.74V899.647H2149.39Z" fill="#46719D"/>
<path d="M2202.72 884.214H2216.29V948.431H2202.72V940.12C2197.84 949.475 2191.39 950.519 2187.93 950.519C2173.13 950.519 2163.37 935.089 2163.37 916.267C2163.37 897.445 2173.02 882.164 2187.26 882.164C2190.91 882.164 2198.14 883.059 2202.72 892.563V884.251V884.214ZM2177.38 916.267C2177.38 926.516 2182.93 934.492 2190.72 934.492C2198.51 934.492 2204.07 926.479 2204.07 916.267C2204.07 906.055 2198.51 898.19 2190.72 898.19C2182.93 898.19 2177.38 906.055 2177.38 916.267Z" fill="#46719D"/>
<path d="M2242.76 840.305V948.427H2229.19V840.305H2242.76Z" fill="#46719D"/>
<path d="M2291.09 849.514L2310.89 915.967L2330.68 849.514H2346.48L2315.13 948.43H2306.45L2275.33 849.514H2291.13H2291.09Z" fill="#46719D"/>
<path d="M2395.71 930.498C2394.26 935.232 2388.81 950.513 2372.04 950.513C2364.25 950.513 2358.36 947.531 2353.59 941.456C2348.26 934.785 2346.03 926.473 2346.03 916.373C2346.03 903.626 2349.9 895.762 2353.37 891.178C2359.03 883.761 2365.71 882.121 2371.48 882.121C2381.25 882.121 2386.95 887.302 2390.27 892.669C2395.37 900.831 2396.04 910.894 2396.04 917.864V919.355H2360C2360 923.231 2360.79 927.368 2362.35 930.2C2363.81 932.884 2366.79 936.275 2372.04 936.275C2377.3 936.275 2381.06 932.996 2383.26 927.815L2395.71 930.498ZM2383.26 907.801C2382.14 899.042 2376.81 894.905 2371.82 894.905C2366.82 894.905 2361.57 899.191 2360.49 907.801H2383.3H2383.26Z" fill="#46719D"/>
<path d="M2406.48 884.208H2420.05V893.861C2422.17 888.383 2425.04 885.699 2426.05 884.954C2428.17 883.165 2430.82 882.121 2434.06 882.121C2436.41 882.121 2438.27 882.866 2439.84 883.612L2438.05 900.533C2436.26 898.893 2434.51 898.148 2431.71 898.148C2429.14 898.148 2425.38 898.893 2422.69 903.328C2420.12 907.614 2420.01 913.13 2420.01 917.566V948.426H2406.44V884.208H2406.48Z" fill="#46719D"/>
<path d="M2446.51 884.208H2460.08V892.52C2462.65 887.786 2467.2 882.121 2474.98 882.121C2479.2 882.121 2485.42 883.761 2489.22 889.985C2492.54 895.464 2492.99 901.837 2492.99 908.062V948.388H2479.42V913.391C2479.42 909.813 2479.31 904.185 2476.85 900.794C2474.72 897.812 2471.85 897.514 2470.51 897.514C2466.93 897.514 2464.18 899.154 2462.16 903.142C2460.15 907.279 2460.04 911.9 2460.04 915.59V948.351H2446.47V884.134L2446.51 884.208Z" fill="#46719D"/>
<path d="M2553.1 930.498C2551.65 935.232 2546.2 950.513 2529.43 950.513C2521.64 950.513 2515.75 947.531 2510.98 941.456C2505.65 934.785 2503.42 926.473 2503.42 916.373C2503.42 903.626 2507.29 895.762 2510.76 891.178C2516.42 883.761 2523.1 882.121 2528.87 882.121C2538.64 882.121 2544.34 887.302 2547.66 892.669C2552.76 900.831 2553.43 910.894 2553.43 917.864V919.355H2517.39C2517.39 923.231 2518.18 927.368 2519.74 930.2C2521.2 932.884 2524.18 936.275 2529.43 936.275C2534.69 936.275 2538.45 932.996 2540.65 927.815L2553.1 930.498ZM2540.65 907.801C2539.53 899.042 2534.2 894.905 2529.21 894.905C2524.21 894.905 2518.96 899.191 2517.88 907.801H2540.69H2540.65Z" fill="#46719D"/>
<path d="M2577.44 899.647V948.434H2563.88V899.647H2558.55V884.217H2563.88V862.265H2577.44V884.217H2586.8V899.647H2577.44Z" fill="#46719D"/>
<path d="M2612.55 933H2638V948.43H2588.77L2616.13 899.643H2592.98V884.213H2639.9L2612.55 933Z" fill="#46719D"/>
<path d="M2663.58 899.647V948.434H2650.01V899.647H2644.68V884.217H2650.01V862.265H2663.58V884.217H2672.93V899.647H2663.58Z" fill="#46719D"/>
<path d="M1825.88 697.448C1837.66 961.362 1702.62 1150.73 1453.77 1187.41C1440.76 1189.35 1432.93 1189.2 1416.76 1189.53C1328.76 1191.28 1201.74 1193.52 1119.56 1195.12C1096.45 1195.5 1079.38 1196.06 1072.34 1195.83C1071.37 1195.79 1070.59 1195.68 1070.03 1195.57C1069.36 1195.42 1068.95 1195.2 1068.84 1194.9C1100.85 1169 1220.04 1094.98 1267.3 1062.25C1273.45 1058 1280.35 1054.17 1283.78 1047.68C1285.83 1043.8 1286.68 1038.7 1287.02 1031.51C1287.39 1022.75 1287.02 1010.37 1286.8 997.142C1286.68 981.861 1284.56 957.523 1298.76 949.994C1308.41 944.143 1330.22 946.23 1345.24 946.304C1517.8 947.609 1576.39 865.054 1583.13 707.846C1601.58 555.633 1553.84 410.426 1446.31 310.056C1440.39 303.683 1425.33 290.452 1428.05 285.271C1429.32 282.178 1436.25 282.029 1446.61 283.855C1658.38 328.841 1820.66 462.754 1825.84 696.889V697.411L1825.88 697.448Z" fill="#789DC3" stroke="#46719D" stroke-width="0.931768" stroke-miterlimit="10"/>
<path d="M1439.61 287.021C1555.33 378.073 1602.56 520.559 1588.24 677.32C1587.65 683.134 1585.56 708.851 1583.88 705.347C1580.23 618.432 1529.65 554.848 1442.25 529.43C1422.43 523.429 1404.54 520.224 1384 520.597C1312.85 520.671 1218.48 520.41 1149.79 520.746C1055.79 525.703 1043.83 431.445 1052.29 322.354C1053.52 306.737 1055.09 294.401 1058.22 287.655C1059.04 285.717 1060.19 284.077 1061.57 282.698C1064.63 279.791 1068.95 279.381 1073.24 279.343C1131.23 279.418 1306.59 279.269 1401.37 279.343C1415.31 279.082 1427.61 278.859 1439.27 286.909L1439.53 287.096L1439.61 287.021Z" fill="#46719D" stroke="#46719D" stroke-width="0.931768" stroke-miterlimit="10"/>
<path d="M834.026 1203.29C1054.04 1217.53 1295.4 1199.64 1309.82 1030.13C1311.8 1003.15 1313.44 973.033 1314.71 947.95C1315.56 882.316 1314.71 745.421 1314.93 658.393C1314.86 655.188 1314.78 652.02 1313.66 649.188C1310.98 641.174 1283.59 645.349 1273.52 644.491C1227.57 645.684 1164.58 644.007 1118.1 647.026C1020.6 663.164 1037.93 791.301 1036.74 867.78C1037.08 904.119 1037.41 945.527 1037.79 982.574C1037.6 1006.13 1039.72 1036.69 1035.92 1055.4C1018.78 1140.53 951.541 1189.31 855.83 1199.38C850.612 1200.05 845.953 1200.65 842.301 1201.17C836.337 1201.99 833.281 1202.66 834.026 1203.25H834.064L834.026 1203.29Z" fill="#46719D"/>
</g>
<defs>
<clipPath id="clip0_1127_11683">
<rect width="1839.72" height="928.413" fill="white" transform="translate(833.879 278.75)"/>
</clipPath>
</defs>
</svg>
