<?xml version="1.0" encoding="UTF-8"?>
<svg id="Layer_2" data-name="Layer 2" xmlns="http://www.w3.org/2000/svg" viewBox="0 0 433.23 513.28">
  <defs>
    <style>
      .cls-1 {
        fill: #eb2f13;
      }

      .cls-2 {
        fill: #ff840b;
        font-family: TheriloExtraBold-ExtraBold, 'Therilo Extra Bold';
        font-size: 161.19px;
        font-weight: 700;
      }

      .cls-3 {
        fill: #ffedd9;
      }

      .cls-4 {
        fill: #1f2a44;
      }

      .cls-5 {
        fill: #f4ede3;
      }

      .cls-6 {
        stroke: #232e48;
        stroke-miterlimit: 10;
      }

      .cls-6, .cls-7 {
        fill: #ec391f;
      }
    </style>
  </defs>
  <g id="Layer_1-2" data-name="Layer 1">
    <g>
      <rect class="cls-5" width="433.23" height="513.28"/>
      <g>
        <g>
          <path class="cls-6" d="M120.38,229.27c-11.97-12.01-25.63-42.02-26.07-57.72-.41-14.66,4.16-28.72,14.14-39.59,14.61-15.91,31.79-20.57,34.04-44.69.13-1.38-1.54-8.34,2.5-6.64,6.78,2.85,11.75,20.51,11.81,26.75.08,10.07-4.12,13.38-6.64,21.47-3.58,11.5,9.49,16.22,16.87,7.25,10.82-13.15,5.57-32.95,15.73-48.64,9.58-14.81,27.52-19.95,41.45-29.74,4.14-2.91,6.11-8,7.38-12.54.4-1.42-.67-3.4,1.98-2.9,4.32,5.39,5.97,8.2,6.02,14.82.09,13.3-5.08,18.92-11.99,28.93-4.43,6.41-7.78,18.46,4.14,20.61,10.02,1.81,19.96-13.51,26.73-18.99,21.28-17.21,56.4-11.02,51.35-49.63-.21-1.59-2.4-8.56-1.78-8.96,5.13,2.79,9.54,6.38,12.86,10.98,10.19,14.13,9.8,33.29,1.93,47.24-6.64,11.78-18.84,16.05-20.64,30.78-.55,4.54,3.46,9.53,8.17,10.88,15.42,4.44,17.69-6.69,25.12-14.57,5.69-6.03,13.61-11.29,22.59-11.67,3.26-.14,10.56.05,7.61,4.91-.58.95-1.79.61-2.46,1.25-16.43,15.7-2.12,32.97-4.53,50.88-1.17,8.7-5.32,17.84-12.93,23.1-1.33-.55-3.7-.97-4.62-2.09-.44-.54.15-1.38-.07-1.78-6.79-12.2-12.78-19.24-27.75-23.39-5.88-1.63-13.61-.75-18.52-2.25-2.97-.91-5.45-3.29-7.87-4.36-9.41-4.15-18.79-5.45-28.58-4.84-1.52.09-4.42.93-5.33.85-1.56-.15-6.59-2.95-9.39-3.57-7.61-1.7-12.82.95-19.92.94-4.38,0-8.36-.89-12.66-1-15.61-.41-18.49,10.59-28.47,20.88-20.15,20.76-40.9,47.15-62.2,67.04Z"/>
          <path class="cls-4" d="M193.22,135.87c12.63-11.79,25.05-23.78,37-36.09,5.92-6.1,11.7-8.61,20.95-8.37,2.55.07,4.91.59,7.51.6,4.21,0,7.3-1.57,11.81-.56,1.66.37,4.64,2.03,5.57,2.12.54.05,2.26-.45,3.16-.5,5.81-.36,11.37.41,16.95,2.87,1.44.63,2.91,2.05,4.67,2.59,2.91.89,7.49.37,10.98,1.33,8.87,2.46,12.42,6.64,16.45,13.87.13.24-.22.73.04,1.05.54.66,1.95.91,2.74,1.24,9.97,4.09,9.87,6.15,13.19,14.71.18.47,1.43,1.95,1.39,2.06-.4,1.19-.57,1.38-.62,2.61-.1,2.12-1.04,4.12-1.02,5.52.01.65,1.58,3.23,1.91,4.19.97,2.88,1.3,8.83.9,11.77-.19,1.39-1.03,2.75-1.07,4.05-.03,1.09,2.02,5.43,2.36,6.95,1.2,5.35-1.58,14.62-4.44,19.1-.64,1-1.46.68-2.13,1.2-3.62,2.75-6.77,5.97-9.82,9.25-12.45,13.41-24.8,27.1-38.72,39.28-19.12,18.85-39.27,37.18-59.97,54.61-21.33,17.97-45.79,19.39-72.25,4.49-18.46-10.39-42.8-37.03-44.79-57.04-1.92-19.29,16.94-35.69,28.56-49.51,15.46-18.38,31.04-36.91,48.7-53.39ZM279.14,102.26c-.86-.1-2.25.26-3.22.08-3.08-.58-7.5-3.14-10.36-2.82-4.57.5-6.94,4.3-10.88,5.89-1.7.69-2.73.27-4.5,1.89-2.25,2.05-5.38,8.82-1.54,10.65.59.28,4.59.83,5.48.91,3.53.32,6.22-.62,9.83,1.09.94.44,3.45,2.65,3.89,2.7.85.08.96-2.81,1.53-3.81,1.93-3.39,9.35-6.58,13.56-5.08,3.7,1.32-1.61,3.35-2.43,3.92-2.91,2.02-5.28,4.3-5.12,8.11.08,1.81,3.79,2.73,1.37,4.12-1.8,1.03-5.13-1.44-8.11.48-1.46.94-1.75,2.64-4.25,1.84-.28-.09-.85-.21-.92-.35-.1-.17.28-3.29.19-3.64-.18-.67-3.57-3.37-4.46-3.78-3.8-1.75-9.66-2.04-11.68,1.82-.37.71.12,5.87.26,7.11.19,1.69.63,4.01.99,5.85.14.74.83,3.87,1.05,4.3.53,1.05,6.78.76,7.2,1.93-1.29,2.07-4.73,2.67-5.48,5.26s1.48,9.78,1.72,12.91c.05.67-.4,3.57-.22,3.81,2.67-.19,5.31-.78,7.97-1,10.06-.85,15.34.68,25.31,1.76,6.05.66,4.5-.95,7.74-4.34,1.98-2.08,7.36-6.68,10.63-6.32,1.83.2,10.58,2.87,9.9,5.22-.11.39-5.14.53-6.34.87-3.18.9-6.47,4.37-8.34,6.77,5.67,1.32,11.42,2.76,17.21,3.09,3.01.17,9.75.21,11.73-1.77,4.67-4.68-.76-7.33-1.37-12.22,2.9-.79,3.67-.8,5.55,1.79.81.08,3.28-2.99,3.55-3.81,1.83-.92,2.43-3.06,2.62-4.89.43-4.06-3.33-6.54-3.56-10.57-.14-2.35,1.46-4.88,1.76-7.33.77-6.29-4.44-10.78-10.48-13.1-1.17-.45-3.01-.34-4.01-1.16-1.13-.93-.83-7.33-4.66-10.68-2.36-2.06-7.77-4.02-10.92-4.28-3.34-.28-5.69.61-9.35-.53-2.4-.75-3.69-2.45-5.74-3.38-5.32-2.41-8.46-1.83-13.09.69ZM249.21,97.91c-7.24-1.63-13.57,5.8-15.77,11.11-2.92,7.06-.96,26.06,1.2,33.89,1.79,6.47,4.26,13.11,6.52,19.33.75,2.06.74,3.79,1.16,5.68.32,1.46.96-.45,1.05-.49.32-.14,1.9.56,2.44.15-2.87-7.25-.37-14.86-1.69-22.1-.77-4.23-2.86-8.86-3.73-13.17-1.45-7.17-1.91-21.59,2.11-27.51,2.03-2.98,5.55-3.7,6.71-6.9ZM229.88,150.26c-1.93-6.7-3.98-13.33-5.01-20.17-.23-1.52-.83-12.46-1.5-12.68-.35.11-.65.3-.96.48-3.93,2.17-13.88,12.11-17.63,15.67-21.2,20.19-39.52,42.83-58.37,64.82-6.21,7.24-13.29,14.51-17.78,22.88-8.57,15.96-3.68,38.53,17.07,45.4,18.14,6,33.51,3.08,49.33-4.67,18.79-9.2,28.78-22.27,37.36-40.02,10.56-21.85,3.97-49.17-2.52-71.72ZM339.3,167.53c-1.37-1.65-1.68,3.4-1.79,3.77-.46,1.59-1.28,3.1-2.29,4.43-3.28.92-6.45,2.75-9.64,3.75-7.49,2.34-20.07-2.37-28.31-3.71-11.41-1.85-27.48-2.99-38.7-1.77-4.88.53-9.61,1.89-14.55,2.01-.45.3.57,5.24.84,5.52.3.31.78.33,1.18.38,4.97-.47,10.2-2.07,15.15-2.34,10.73-.6,25.56,1.35,36.4,3.18,5,.84,10.33,2.53,15.26,3.22,5.61.78,16.87-.94,21.66-3.42,2.7-1.4,4.66-5.41,5.18-8.21.15-.82-.09-6.42-.4-6.8ZM151.88,280.06c-.34,1.07.25,1.06,1.03,1.48,4.88,2.61,11.67,7.55,17.14,10.92.27.17.11.69.36.84,2.47,1.42,18.33,6.06,21.26,6.15,22.85.72,39.99-18.45,55.03-31.48,26.92-23.32,52.84-47.78,77.49-73.26.46-.47,1.22-.83,1.81-1.16,0-.4-.87-.46-1.22-.49-9.22-.8-17-.38-26.4-1.77-15.74-2.34-28.5-3.91-44.28-3.08-2.55.14-5.13.53-7.67.75-.45,2.25.33,5.11.35,7.58.21,22.64-15.95,47.46-32.71,62.33-13.51,11.98-35.87,19.3-55.39,17.11-4.99-.56-10.37-1.49-14.86-3.86,1.45,1.69,3.16,3.92,4.76,5.42.84.79,2.28,1.99,3.3,2.52Z"/>
          <path class="cls-3" d="M229.88,150.26c6.49,22.55,13.08,49.87,2.52,71.72-8.58,17.75-18.58,30.81-37.36,40.02-15.82,7.75-31.19,10.67-49.33,4.67-20.75-6.86-25.65-29.44-17.07-45.4,4.49-8.36,11.58-15.63,17.78-22.88,18.85-21.99,37.17-44.64,58.37-64.82,3.74-3.56,13.7-13.5,17.63-15.67.31-.17.61-.36.96-.48.66.22,1.27,11.17,1.5,12.68,1.03,6.83,3.08,13.47,5.01,20.17ZM217.2,137.48c1.84-.4,2.13-8.73,1.48-10.53-1.04.58-2.57,1.96-2.85,3.05-.12.46-.23,6.5-.11,6.83.15.41,1.15.72,1.48.65ZM207.81,153.95c1.47-3.82.91-8.12,1.09-12.22.09-2,1.11-4.61-.04-6.51-.38-.11-4.72,4.49-5.1,5.13-1.62,2.74.19,11.83,4.04,13.6ZM199.47,145.52c-.43-.81-.71-.02-.95.23-1.15,1.17-4.01,4.62-4.64,5.97-.96,2.05-.47,9.81.5,11.98.37.82,3.27,5.19,4.18,4.8.67-1.53.82-3.09.96-4.73.26-3.17-.58-6.21-.66-9.2-.04-1.29.88-8.55.62-9.04ZM189.18,156.69c-.99-.44-.61-.16-.93.26-.92,1.22-3.37,3.43-3.77,4.51-.67,1.78-.02,11.46.69,13.52.6,1.76,2.23,3.56,2.54,5.53.87,1.25,2.14.83,2.58-.38.34-.94-.17-1.45-.1-2.01.53-4.52-.17-8.64-.4-12.93-.15-2.9-.15-5.6-.61-8.49ZM181.19,185.23c-.74-6.45-1.55-11.74-1.39-18.24,0-.35.15-.81-.36-.87-.92,1.63-3.21,2.83-3.85,4.59-1.74,4.76-.27,15.2,2.91,19.73.91,1.3,3.1,3.8,3.46,1.13.24-1.81-.57-4.64-.77-6.35ZM171.49,176.53c-.42-.73-.69-.09-.96.22-.88,1.06-3.9,4.94-4.36,5.92-1.78,3.83,1.26,18.72,3.59,22.7,1.29,2.21,2.64,1.97,3.1-.36.13-.63-.36-1.27-.3-1.8.45-4.39-.98-7.31-.95-11.44.02-2.45.97-5.29,1.09-7.62.09-1.64-1.53-4.08-1.6-4.98-.04-.5.51-2.42.38-2.64ZM212.57,200.8c.38.83,4.61,1.58,5.67,1.18,1.66-.63,4.62-4.22,2.11-5.44-3.02-1.46-9.21,1.12-7.77,4.26ZM163.18,208.77c-1.69-7.02-1.9-14.33-1.68-21.36l-5.83,7.09c-1.72,3.88,2.14,16.9,4.64,20.75,1.17,1.8,2.86,2.74,4.11,4.38,1.24.4.99-3.54.89-4.25-.29-1.99-1.66-4.65-2.13-6.61ZM151.56,199.46c-.57,2.52-4.47,4.74-5.39,6.55-.45.88,2.14,12.59,2.64,14.43.81,2.96,3.17,8.24,4.99,10.82.39.55,2.88,2.81,3.47,2.85,1.9.15-.38-4.05-.63-5.02-2.43-9.61-2.82-19-4.59-28.52-.07-.38,0-1.03-.5-1.1ZM149.78,240.33c-2.79-5.22-5.77-11.88-6.81-17.57-.22-1.23-.89-10.35-1.58-10.57-2.1,1.87-5.34,5.21-5.31,8.02.04,3.96,5.24,14.85,7.7,18.5,2.1,3.11,5.08,6.94,8.78,8.37,1.26-.51-2.43-6.08-2.79-6.76ZM192.96,236.27c-1.96,1.31-2.28,2.98.16,4.32,2.73,1.5,10.3-3.51,6.55-5.94-1.57-1.02-5.37.73-6.71,1.63ZM141.94,249.5c-1.47-2.14-3.34-4.78-4.37-7.09-1.56-3.48-2.66-10.27-4.57-13.08-.35-.52-1.09-1.24-1.79-1.03-2,.74-2.08,8.05-1.76,10.04.5,3.02,3.44,6.64,5.53,9.09.64.75,4.38,4.99,4.8,5.27.67.45,3.65,1.98,4.25,1.35l-2.09-4.54ZM161.22,251.48c-1.6-.09-1.89,1.9-1.72,3.04.48,3.13,8.9,7.64,8.18,1.95-.31-2.45-3.94-2.88-5.41-4.71-.33-.18-.68-.26-1.05-.28Z"/>
          <path class="cls-1" d="M279.14,102.26c2.27.27,7.47.82,9.37,1.62,2.04.86,5.12,3.82,7.48,4.59,5.98,1.97,12.89-1.24,19.3,3.49,3.37,2.49,4.29,8.35,3.54,11.92,3.1.42,6.28.89,9.19,2.25.77.36,4.4,3.24,4.75,3.8.36.6.94,3.62.86,4.36-.2,1.75-1.41,3.13-1.59,4.27-.41,2.6-.15,8.03,1.01,10.54s4.52,5.23,3.51,8.37c-.26.82-2.73,3.89-3.55,3.81-1.88-2.58-2.65-2.57-5.55-1.79.61,4.9,6.05,7.54,1.37,12.22-1.98,1.98-8.72,1.94-11.73,1.77-5.78-.33-11.54-1.77-17.21-3.09,1.87-2.4,5.16-5.87,8.34-6.77,1.2-.34,6.23-.48,6.34-.87.68-2.35-8.07-5.03-9.9-5.22-3.27-.36-8.66,4.24-10.63,6.32-3.23,3.4-1.68,5-7.74,4.34-9.97-1.08-15.24-2.62-25.31-1.76-2.66.23-5.3.81-7.97,1-.19-.25.27-3.15.22-3.81-.24-3.13-2.45-10.41-1.72-12.91s4.2-3.19,5.48-5.26c-.42-1.17-6.67-.88-7.2-1.93-.22-.43-.91-3.56-1.05-4.3-.36-1.84-.8-4.16-.99-5.85-.14-1.24-.63-6.4-.26-7.11,2.01-3.86,7.88-3.57,11.68-1.82.89.41,4.28,3.11,4.46,3.78.09.36-.28,3.48-.19,3.64.08.13.64.26.92.35,2.5.79,2.79-.9,4.25-1.84,2.98-1.92,6.31.55,8.11-.48,2.42-1.39-1.29-2.31-1.37-4.12-.17-3.8,2.21-6.09,5.12-8.11.82-.57,6.13-2.6,2.43-3.92-4.22-1.5-11.63,1.69-13.56,5.08-.57,1-.67,3.89-1.53,3.81-.44-.04-2.96-2.25-3.89-2.7-3.6-1.71-6.3-.78-9.83-1.09-.89-.08-4.89-.63-5.48-.91-3.84-1.83-.72-8.6,1.54-10.65,1.77-1.62,2.8-1.2,4.5-1.89,3.94-1.59,6.32-5.39,10.88-5.89,2.86-.31,7.28,2.24,10.36,2.82.97.18,2.36-.18,3.22-.08ZM318.49,147.79c.12.2,2.14.81,2.6.5,2.29-1.56.31-9.12.67-11.62-3.01-5.08-11.79-5.15-16.47-2.93-.78.37-.9,1.93-2.94.83,1.71,1.8-1.32,4.6.99,5.67,1.77.82,3.47-1.02,5.07-1.42,4-1.01,8.96.97,10.08,4.97.34,1.22-.1,3.82,0,4ZM273.22,155.63c.19-.1,1.05-2.86,1.69-3.78,1.11-1.6,3.64-3.19,5.64-3.67s3.68.23,5.14-1.26c-.74-1.69-2.11-2.41-3.87-3-.78-.26-4.07-1.16-4.72-1.15-.54,0-1.83.34-2.33.56-2.67,1.15-4.76,3.69-5.55,6.27-.52,1.69-.91,4.36,1.16,5.46.48.25,2.61.7,2.85.56Z"/>
          <path class="cls-7" d="M298.38,191.28c9.4,1.4,17.19.98,26.4,1.77.35.03,1.22.09,1.22.49-.6.33-1.36.69-1.81,1.16-24.65,25.49-50.57,49.94-77.49,73.26-15.04,13.02-32.18,32.2-55.03,31.48-2.93-.09-18.79-4.74-21.26-6.15-.25-.15-.09-.67-.36-.84-5.47-3.37-12.27-8.31-17.14-10.92-.78-.42-1.37-.41-1.03-1.48,2.74,1.45,9.95,4.45,12.91,5.32,16.32,4.79,33.93-2.84,45.73-11.78,22.32-16.91,44.59-36.54,63.97-56.28,8.26-8.42,15.64-17.59,23.88-26.03ZM252.62,242.76c2.33,4.3,18.26.89,6.57-3.13-2.66-.91-8.3-.06-6.57,3.13ZM201.2,286.38c2.39,5,11.69-4.45,8.36-7.2-.99-.82-3.28.69-4.31,1.4-1.41.97-4.9,4.04-4.06,5.8Z"/>
          <path class="cls-3" d="M298.38,191.28c-8.24,8.44-15.62,17.61-23.88,26.03-19.38,19.75-41.65,39.37-63.97,56.28-11.8,8.94-29.41,16.57-45.73,11.78-2.96-.87-10.16-3.87-12.91-5.32-1.02-.54-2.46-1.73-3.3-2.52-1.61-1.51-3.32-3.73-4.76-5.42,4.49,2.36,9.87,3.3,14.86,3.86,19.52,2.2,41.88-5.13,55.39-17.11,16.76-14.86,32.92-39.69,32.71-62.33-.02-2.47-.81-5.33-.35-7.58,2.54-.22,5.12-.62,7.67-.75,15.78-.84,28.54.74,44.28,3.08ZM274.6,203.16c-2.24-.62-8.71.9-6.79,3.81,1.56,2.37,7.4,1.59,8.39-.64.6-1.35.03-2.72-1.59-3.17Z"/>
          <path class="cls-3" d="M339.3,167.53c.31.38.55,5.98.4,6.8-.52,2.8-2.48,6.81-5.18,8.21-4.79,2.48-16.05,4.2-21.66,3.42-4.93-.69-10.26-2.38-15.26-3.22-10.84-1.82-25.68-3.77-36.4-3.18-4.95.28-10.18,1.87-15.15,2.34-.4-.05-.88-.07-1.18-.38-.27-.28-1.29-5.22-.84-5.52,4.94-.11,9.67-1.48,14.55-2.01,11.22-1.22,27.29-.07,38.7,1.77,8.24,1.33,20.82,6.05,28.31,3.71,3.19-1,6.36-2.83,9.64-3.75,1.01-1.34,1.83-2.84,2.29-4.43.11-.37.42-5.41,1.79-3.77Z"/>
          <path class="cls-3" d="M249.21,97.91c-1.17,3.19-4.69,3.92-6.71,6.9-4.02,5.91-3.57,20.34-2.11,27.51.87,4.31,2.96,8.94,3.73,13.17,1.32,7.25-1.18,14.85,1.69,22.1-.53.41-2.11-.29-2.44-.15-.09.04-.73,1.95-1.05.49-.42-1.89-.41-3.62-1.16-5.68-2.26-6.23-4.73-12.86-6.52-19.33-2.16-7.83-4.12-26.83-1.2-33.89,2.2-5.32,8.53-12.74,15.77-11.11Z"/>
          <path class="cls-3" d="M336.56,157.48c1.01-3.13-2.41-5.97-3.51-8.37s-1.41-7.94-1.01-10.54c.18-1.14,1.38-2.52,1.59-4.27.09-.75-.49-3.76-.86-4.36-.34-.57-3.98-3.45-4.75-3.8-2.91-1.35-6.09-1.83-9.19-2.25.75-3.57-.17-9.43-3.54-11.92-6.4-4.74-13.32-1.53-19.3-3.49-2.36-.78-5.45-3.74-7.48-4.59-1.9-.8-7.1-1.36-9.37-1.62,4.63-2.52,7.77-3.1,13.09-.69,2.05.93,3.35,2.64,5.74,3.38,3.66,1.14,6.01.25,9.35.53,3.15.26,8.56,2.21,10.92,4.28,3.83,3.35,3.53,9.75,4.66,10.68.99.82,2.84.71,4.01,1.16,6.04,2.31,11.25,6.81,10.48,13.1-.3,2.45-1.9,4.98-1.76,7.33.23,4.03,3.99,6.5,3.56,10.57-.19,1.83-.79,3.98-2.62,4.89Z"/>
          <path class="cls-4" d="M149.78,240.33c.36.68,4.05,6.25,2.79,6.76-3.7-1.43-6.68-5.26-8.78-8.37-2.46-3.65-7.66-14.54-7.7-18.5-.03-2.82,3.21-6.15,5.31-8.02.68.21,1.35,9.34,1.58,10.57,1.04,5.69,4.02,12.35,6.81,17.57Z"/>
          <path class="cls-4" d="M151.56,199.46c.49.08.43.72.5,1.1,1.77,9.52,2.16,18.91,4.59,28.52.24.97,2.52,5.17.63,5.02-.59-.05-3.08-2.3-3.47-2.85-1.82-2.57-4.18-7.86-4.99-10.82-.51-1.84-3.09-13.55-2.64-14.43.92-1.81,4.82-4.02,5.39-6.55Z"/>
          <path class="cls-4" d="M163.18,208.77c.47,1.96,1.85,4.62,2.13,6.61.1.71.35,4.65-.89,4.25-1.26-1.64-2.94-2.57-4.11-4.38-2.5-3.85-6.36-16.87-4.64-20.75l5.83-7.09c-.21,7.03-.01,14.35,1.68,21.36Z"/>
          <path class="cls-4" d="M171.49,176.53c.13.22-.42,2.14-.38,2.64.07.9,1.69,3.34,1.6,4.98-.13,2.33-1.08,5.17-1.09,7.62-.03,4.13,1.4,7.05.95,11.44-.05.53.43,1.17.3,1.8-.46,2.33-1.81,2.57-3.1.36-2.33-3.98-5.37-18.87-3.59-22.7.46-.98,3.48-4.86,4.36-5.92.26-.31.54-.96.96-.22Z"/>
          <path class="cls-4" d="M141.94,249.5l2.09,4.54c-.6.63-3.58-.9-4.25-1.35-.41-.28-4.16-4.51-4.8-5.27-2.09-2.45-5.03-6.07-5.53-9.09-.33-1.99-.25-9.3,1.76-10.04.69-.22,1.43.51,1.79,1.03,1.91,2.82,3.01,9.6,4.57,13.08,1.03,2.3,2.9,4.95,4.37,7.09Z"/>
          <path class="cls-4" d="M181.19,185.23c.2,1.71,1.01,4.53.77,6.35-.36,2.67-2.55.17-3.46-1.13-3.18-4.52-4.64-14.97-2.91-19.73.64-1.76,2.93-2.95,3.85-4.59.51.05.37.52.36.87-.16,6.5.65,11.79,1.39,18.24Z"/>
          <path class="cls-4" d="M189.18,156.69c.46,2.9.45,5.6.61,8.49.23,4.29.93,8.41.4,12.93-.07.56.44,1.07.1,2.01-.44,1.22-1.71,1.63-2.58.38-.31-1.97-1.94-3.77-2.54-5.53-.7-2.06-1.35-11.74-.69-13.52.4-1.07,2.85-3.28,3.77-4.51.32-.42-.07-.71.93-.26Z"/>
          <path class="cls-4" d="M199.47,145.52c.26.49-.66,7.75-.62,9.04.09,2.99.93,6.04.66,9.2-.14,1.64-.29,3.21-.96,4.73-.91.39-3.81-3.98-4.18-4.8-.97-2.17-1.46-9.93-.5-11.98.63-1.35,3.49-4.8,4.64-5.97.24-.25.53-1.03.95-.23Z"/>
          <path class="cls-4" d="M207.81,153.95c-3.86-1.77-5.66-10.86-4.04-13.6.38-.64,4.72-5.24,5.1-5.13,1.14,1.9.12,4.51.04,6.51-.18,4.1.38,8.39-1.09,12.22Z"/>
          <path class="cls-4" d="M192.96,236.27c1.34-.9,5.14-2.65,6.71-1.63,3.74,2.44-3.82,7.45-6.55,5.94-2.43-1.34-2.11-3-.16-4.32Z"/>
          <path class="cls-4" d="M161.22,251.48c.37.02.72.1,1.05.28,1.48,1.83,5.1,2.27,5.41,4.71.72,5.69-7.7,1.17-8.18-1.95-.18-1.14.12-3.13,1.72-3.04Z"/>
          <path class="cls-4" d="M212.57,200.8c-1.44-3.14,4.75-5.72,7.77-4.26,2.52,1.22-.45,4.81-2.11,5.44-1.06.4-5.29-.35-5.67-1.18Z"/>
          <path class="cls-4" d="M217.2,137.48c-.33.07-1.33-.24-1.48-.65-.12-.33,0-6.37.11-6.83.28-1.1,1.81-2.48,2.85-3.05.65,1.8.36,10.14-1.48,10.53Z"/>
          <path class="cls-4" d="M318.49,147.79c-.11-.18.33-2.79,0-4-1.12-4-6.08-5.98-10.08-4.97-1.6.4-3.31,2.25-5.07,1.42-2.3-1.07.72-3.87-.99-5.67,2.04,1.1,2.16-.46,2.94-.83,4.68-2.22,13.46-2.14,16.47,2.93-.35,2.5,1.63,10.06-.67,11.62-.46.31-2.48-.3-2.6-.5Z"/>
          <path class="cls-4" d="M273.22,155.63c-.24.13-2.37-.31-2.85-.56-2.07-1.1-1.67-3.77-1.16-5.46.79-2.59,2.88-5.12,5.55-6.27.5-.22,1.79-.55,2.33-.56.65,0,3.94.89,4.72,1.15,1.76.59,3.13,1.31,3.87,3-1.46,1.49-3.15.79-5.14,1.26s-4.53,2.07-5.64,3.67c-.64.92-1.5,3.67-1.69,3.78Z"/>
          <path class="cls-4" d="M201.2,286.38c-.84-1.76,2.64-4.82,4.06-5.8,1.02-.7,3.32-2.21,4.31-1.4,3.33,2.75-5.98,12.19-8.36,7.2Z"/>
          <path class="cls-4" d="M252.62,242.76c-1.73-3.19,3.91-4.04,6.57-3.13,11.69,4.02-4.24,7.43-6.57,3.13Z"/>
          <path class="cls-4" d="M274.6,203.16c1.63.45,2.19,1.82,1.59,3.17-.98,2.24-6.82,3.01-8.39.64-1.92-2.91,4.56-4.43,6.79-3.81Z"/>
        </g>
        <text class="cls-2" transform="translate(64.63 409.96) scale(.99 1)"><tspan x="0" y="0">Burrito</tspan><tspan x="57.06" y="77.37">Casa</tspan></text>
      </g>
    </g>
  </g>
</svg>