<svg width="651" height="800" viewBox="0 0 651 800" fill="none" xmlns="http://www.w3.org/2000/svg">
<path d="M516.73 0H250.923H230.327L215.772 14.5531L14.5531 215.784L0 230.338V250.925V665.791C0 739.791 60.2 800.002 134.213 800.002H516.73C590.719 800.002 650.919 739.791 650.919 665.791V134.213C650.919 60.2 590.719 0 516.73 0ZM601.236 665.789C601.236 712.472 563.402 750.306 516.73 750.306H134.213C87.5188 750.306 49.6844 712.472 49.6844 665.789V250.923H180.491C219.373 250.923 250.923 219.395 250.923 180.502V49.6938H516.73C563.402 49.6938 601.236 87.5281 601.236 134.213V665.789Z" fill="#FED602"/>
<path d="M190.419 420.233C199.539 420.233 204.644 423.625 209.948 430.836C214.181 436.781 218.436 438.909 223.738 438.909C231.594 438.909 237.964 433.17 237.964 424.901C237.964 421.509 236.895 418.53 235.192 415.562C227.97 402.612 212.064 392.642 190.419 392.642C165.152 392.642 146.475 404.522 138.838 428.087C135.87 437.634 134.822 445.064 134.822 467.133C134.822 489.203 135.869 496.634 138.838 506.18C146.475 529.744 165.152 541.625 190.419 541.625C212.064 541.625 227.97 531.653 235.192 518.703C236.895 515.736 237.964 512.758 237.964 509.366C237.964 501.084 231.592 495.358 223.738 495.358C218.436 495.358 214.181 497.484 209.948 503.42C204.645 510.642 199.539 514.036 190.419 514.036C178.745 514.036 171.959 507.883 168.773 498.119C167.072 492.817 166.439 487.722 166.439 467.134C166.439 446.548 167.073 441.453 168.773 436.151C171.959 426.386 178.745 420.233 190.419 420.233Z" fill="#FED602"/>
<path d="M324.13 452.492L316.492 451.424C299.734 449.089 293.995 443.58 293.995 435.506C293.995 426.386 300.781 420.014 313.523 420.014C322.426 420.014 331.35 422.567 338.355 425.959C341.322 427.444 344.508 428.294 347.475 428.294C355.112 428.294 361.069 422.566 361.069 414.711C361.069 409.616 358.734 405.372 353.628 402.186C345.141 396.883 329.234 392.639 313.306 392.639C282.103 392.639 262.161 410.247 262.161 436.78C262.161 462.255 278.286 476.045 307.786 480.081L315.444 481.139C332.616 483.474 337.722 488.777 337.722 497.264C337.722 507.247 329.431 514.252 314.156 514.252C303.552 514.252 295.064 511.491 283.172 504.913C280.619 503.419 277.434 502.359 274.052 502.359C265.98 502.359 260.044 508.513 260.044 516.159C260.044 521.244 262.597 526.131 267.462 529.316C277.019 535.252 292.511 541.622 312.891 541.622C350.441 541.622 369.556 522.313 369.556 496.205C369.558 470.102 354.064 456.736 324.13 452.492Z" fill="#FED602"/>
<path d="M454.674 452.492L447.036 451.424C430.258 449.089 424.539 443.58 424.539 435.506C424.539 426.386 431.327 420.014 444.045 420.014C452.97 420.014 461.894 422.567 468.877 425.959C471.866 427.444 475.052 428.294 478.019 428.294C485.655 428.294 491.591 422.566 491.591 414.711C491.591 409.616 489.256 405.372 484.172 402.186C475.684 396.883 459.756 392.639 443.85 392.639C412.648 392.639 392.705 410.247 392.705 436.78C392.705 462.255 408.83 476.045 438.33 480.081L445.967 481.139C463.161 483.474 468.245 488.777 468.245 497.264C468.245 507.247 459.977 514.252 444.702 514.252C434.077 514.252 425.589 511.491 413.719 504.913C411.166 503.419 407.98 502.359 404.577 502.359C396.525 502.359 390.569 508.513 390.569 516.159C390.569 521.244 393.122 526.131 398.009 529.316C407.567 535.252 423.059 541.622 443.416 541.622C480.989 541.622 500.081 522.313 500.081 496.205C500.081 470.102 484.589 456.736 454.674 452.492Z" fill="#FED602"/>
</svg>
