<svg width="416" height="606" viewBox="0 0 416 606" fill="none" xmlns="http://www.w3.org/2000/svg">
<path d="M208 303C208 277.804 218.009 253.641 235.825 235.825C253.641 218.009 277.804 208 303 208C328.196 208 352.359 218.009 370.175 235.825C387.991 253.641 398 277.804 398 303C398 328.196 387.991 352.359 370.175 370.175C352.359 387.991 328.196 398 303 398C277.804 398 253.641 387.991 235.825 370.175C218.009 352.359 208 328.196 208 303V303Z" stroke="#FED602" stroke-width="35"/>
<path d="M18 493C18 467.804 28.0089 443.641 45.8249 425.825C63.6408 408.009 87.8044 398 113 398H208V493C208 518.196 197.991 542.359 180.175 560.175C162.359 577.991 138.196 588 113 588C87.8044 588 63.6408 577.991 45.8249 560.175C28.0089 542.359 18 518.196 18 493Z" stroke="#FED602" stroke-width="35"/>
<path d="M208 18V208H303C328.196 208 352.359 197.991 370.175 180.175C387.991 162.359 398 138.196 398 113C398 87.8044 387.991 63.6408 370.175 45.8249C352.359 28.0089 328.196 18 303 18L208 18Z" stroke="#FED602" stroke-width="35"/>
<path d="M18.0002 113C18.0002 138.196 28.0091 162.359 45.825 180.175C63.641 197.991 87.8046 208 113 208H208V18H113C87.8046 18 63.641 28.0089 45.825 45.8249C28.0091 63.6408 18.0002 87.8044 18.0002 113Z" stroke="#FED602" stroke-width="35"/>
<path d="M18 303C18 328.196 28.0089 352.359 45.8249 370.175C63.6408 387.991 87.8044 398 113 398H208V208H113C87.8044 208 63.6408 218.009 45.8249 235.825C28.0089 253.641 18 277.804 18 303Z" stroke="#FED602" stroke-width="35"/>
</svg>
