<svg width="633" height="525" viewBox="0 0 633 525" fill="none" xmlns="http://www.w3.org/2000/svg">
<path d="M6.82864 524.618H121.831C124.9 524.618 127.595 522.571 128.418 519.611L161.957 398.702H292.158L328.545 519.753C329.414 522.642 332.073 524.618 335.091 524.618H454.455C454.477 524.618 454.499 524.618 454.51 524.618C458.284 524.618 461.343 521.559 461.343 517.785C461.343 516.776 461.13 515.82 460.733 514.959L308.866 25.1974C307.98 22.3385 305.332 20.387 302.336 20.387H156.766C153.76 20.387 151.109 22.3494 150.231 25.222L0.296301 515.787C-0.332334 517.859 0.0503131 520.108 1.33765 521.849C2.62772 523.59 4.66121 524.618 6.82864 524.618ZM272.099 302.059H181.786L208.473 206.665C213.319 189.476 217.9 169.136 222.33 149.465C223.344 144.947 224.342 140.514 225.331 136.179C231.194 159.744 237.642 185.204 244.106 206.736L272.099 302.059Z" fill="#FED602"/>
<path d="M511.893 155.038C508.119 155.038 505.06 158.096 505.06 161.871V517.785C505.06 521.559 508.119 524.618 511.893 524.618H622.525C626.299 524.618 629.358 521.559 629.358 517.785V161.871C629.358 158.096 626.299 155.038 622.525 155.038H511.893Z" fill="#FED602"/>
<path d="M566.483 125.027C605.027 125.027 632.999 98.8898 632.999 62.7241C632.159 25.7932 605.106 0 567.21 0C547.865 0 530.687 6.67447 518.841 18.7989C507.725 30.169 501.802 45.8193 502.147 62.8772C501.794 79.3939 507.731 94.7626 518.871 106.171C530.744 118.331 547.654 125.027 566.483 125.027Z" fill="#FED602"/>
</svg>
