<svg width="512" height="410" viewBox="0 0 512 410" fill="none" xmlns="http://www.w3.org/2000/svg">
<path d="M385.842 346.415C359.007 346.415 324.676 334.453 308.031 324.465L291.96 389.118C313.91 401.08 347.822 409.405 385.842 409.405C468.912 409.405 511.824 369.613 511.824 315.365C511.198 272.658 488.051 244.623 432.76 225.743C397.235 213.156 386.05 206.029 386.05 192.402C386.05 177.577 398.431 168.63 420.381 168.63C445.348 168.63 470.158 178.202 483.367 185.326L499.39 122.911C481.547 113.964 451.278 106.266 417.311 106.266C345.427 106.266 299.083 147.306 299.083 201.349C298.458 235.886 321.607 268.605 381.786 288.732C415.489 300.124 424.435 307.197 424.435 322.022C424.437 336.897 413.046 346.415 385.842 346.415Z" fill="#FED602"/>
<path d="M89.6231 260.279C97.9447 261.476 108.713 261.892 120.465 261.892C173.936 261.892 219.814 248.889 250.501 219.865C274.482 197.29 287.482 163.949 287.482 124.784C287.482 85.5637 270.421 52.2227 244.624 32.0924C217.991 10.5584 178.202 0 122.286 0C67.0466 0 27.8301 3.64536 0 8.32329V403.528H89.6215L89.6231 260.279ZM89.7798 71.9373C96.1254 70.1146 108.714 68.2936 126.971 68.2936C172.274 68.2936 197.709 90.1922 197.915 126.969C197.915 168.059 168.007 192.402 119.894 192.402C106.89 192.402 97.5291 191.832 89.7798 190.164V71.9373Z" fill="#FED602"/>
</svg>
