<svg width="383" height="320" viewBox="0 0 383 320" fill="none" xmlns="http://www.w3.org/2000/svg">
<path d="M0 6.5779C20.6811 2.81159 49.3505 0 88.3547 0C130.64 0 161.659 8.93158 181.861 25.8474C200.657 41.3526 212.88 66.2621 212.88 95.8653C212.88 125.937 203.48 150.847 185.621 167.767C162.601 190.798 126.416 201.6 85.5369 201.6C74.72 201.6 64.8516 201.136 57.3305 199.72V319.079H0V6.5779ZM57.3305 154.134C64.3874 156.019 73.7821 156.483 85.5369 156.483C128.769 156.483 155.08 135.338 155.08 98.2137C155.08 62.9716 130.64 44.1747 90.7032 44.1747C74.72 44.1747 63.4442 45.5811 57.3305 46.9926V154.134ZM306.875 133.931C318.155 101.505 344.94 85.0537 369.372 85.0537L383.006 86.4653V140.982C378.303 140.036 373.132 139.103 366.081 139.103C338.358 139.103 319.566 156.952 314.395 182.804L312.515 200.667V319.079H254.711V164.003C254.711 132.988 254.242 110.906 252.836 90.2305H303.115L304.985 133.931H306.875Z" fill="#FED602"/>
</svg>
