<svg width="2487" height="1255" viewBox="0 0 2487 1255" fill="none" xmlns="http://www.w3.org/2000/svg">
<g clip-path="url(#clip0_510_1001)">
<path d="M2486.64 0H0.225586V1255H2486.64V0Z" fill="#FFF6F1"/>
<path d="M1105.45 779.994C1109.18 780.48 1110.57 776.407 1112.06 773.732C1122.13 755.736 1128.71 727.952 1137.36 707.98C1142.68 695.699 1147.89 677.642 1161.74 675.94C1169.56 674.983 1199.89 674.618 1206.74 676.275C1211.98 677.536 1214.54 682.309 1215.13 687.72C1223.9 754.703 1180.54 945.301 1291.11 913.17C1302.24 908.291 1312.37 896.998 1311.61 883.334C1306.33 879.625 1304.93 890.675 1300.61 895.052C1297.56 898.153 1290.88 901.39 1286.79 902.226C1206.09 918.687 1221.24 779.781 1262.64 739.047C1284.74 717.312 1335.99 705.655 1358.32 731.949C1378.43 755.63 1368.05 775.875 1371.93 802.474C1373 809.876 1382.81 814.375 1385.98 822.263C1401.05 859.699 1369.23 901.618 1337.88 914.735C1331.98 917.197 1314.37 919.827 1313.27 920.526C1292.36 968.677 1216.77 974.331 1180.13 944.571C1137.16 909.522 1153.09 848.801 1153.66 798.902C1151.43 799.783 1149.73 804.434 1148.54 806.745C1138.6 826.139 1126.21 862.404 1113.39 877.603C1105.38 887.088 1094.1 883.698 1088.54 873.059C1076.65 850.29 1071.25 819.117 1060.84 795.725C1060.02 793.886 1059.38 791.393 1057.21 790.998C1056.94 824.832 1053.46 862.45 1049.87 895.812C1047.95 911.042 1047.13 917 1031.6 918.672C1024.26 919.462 990.334 920.009 986.321 915.51C982.947 911.741 983.874 895.447 984.117 889.535C986.503 834.103 994.787 767.075 1001.82 711.582C1003.01 702.296 1003.36 681.898 1011.54 677.916C1017.84 674.846 1051.12 674.967 1059.46 675.834C1074.32 677.384 1076.71 690.82 1081.71 703.861C1091.18 728.56 1096.7 754.976 1105.45 779.948V779.994ZM1285.52 772.41C1281.41 774.963 1271.64 806.137 1284.53 806.942C1298.63 807.824 1296.87 765.357 1285.52 772.41ZM1322.85 772.318C1314.87 774.811 1316.28 805.544 1321.19 806.745C1332.03 809.405 1338.38 767.485 1322.85 772.318ZM1350.63 826.154C1343.52 816.837 1314.59 817.202 1309.76 829.255C1298.83 856.537 1355.33 869.213 1352.53 832.781C1352.35 830.425 1352.07 828.039 1350.63 826.154Z" fill="#FF8063"/>
<path d="M1315.02 634.431C1313.35 632.805 1312.59 628.23 1309.58 628.777C1277.6 667.535 1196.15 669.009 1190.25 605.796C1183.77 536.305 1260.79 525.452 1308.67 527.793C1309.88 505.526 1306.31 467.528 1276.75 476.83C1259.62 482.226 1259.63 503.718 1252.29 515.102C1247.99 521.774 1222.23 520.68 1214.31 519.966C1197.29 518.415 1196.22 512.837 1199.46 495.951C1212.26 429.196 1324.59 410.622 1359.8 459.26C1386.65 496.361 1366.56 546.093 1373.34 586.538C1375.47 599.26 1389.33 599.518 1390.13 607.604C1390.5 611.252 1380.97 641.24 1378.64 645.04C1371.27 657.123 1347.61 654.296 1336.47 649.949C1329.12 647.077 1320.79 640.1 1315.02 634.461V634.431ZM1280.56 564.484C1241.73 568.998 1257.02 615.052 1294.59 598.515C1304.03 594.366 1311.58 584.699 1308.36 573.041C1305.85 563.967 1287.66 563.679 1280.56 564.499V564.484Z" fill="#FF8063"/>
<path d="M1577.27 348.518C1578.89 350.266 1580.37 355.677 1580.64 358.291C1586.07 426.566 1566.35 506.377 1576.29 574.196C1580.85 593.423 1612 564.788 1615.55 593.347C1624.61 665.924 1531.79 671.699 1510.83 624.278C1493.88 585.93 1503.78 495.282 1506.01 451.311C1507.56 420.73 1507.14 386.836 1510.39 356.711C1510.77 353.215 1511.33 350.297 1514.23 348.245C1523.08 341.998 1569.88 340.584 1577.27 348.518Z" fill="#FF8063"/>
<path d="M1571.83 838.344C1574.04 861.508 1597.71 868.211 1615.99 863.088C1634.28 857.966 1639.11 841.673 1655.13 864.38C1667.02 881.206 1658.38 892.362 1644.81 903.625C1623.88 920.982 1594.59 923.779 1569.44 917.365C1474.81 893.228 1503.12 703.314 1610.2 718.939C1647.2 724.335 1667.32 774.462 1663.93 810.727C1662.56 825.288 1657.2 825.577 1645.24 828.404C1621.48 834.043 1595.76 833.313 1571.84 838.344H1571.83ZM1612.6 794.023C1614.15 753.745 1571.83 764.628 1570.38 797.337C1584.46 797.549 1598.7 796.455 1612.6 794.023Z" fill="#FF8063"/>
<path d="M1406.62 773.686C1401.24 770.495 1391.43 773.185 1388.67 767.029C1386.56 762.272 1386.65 722.328 1390.1 720.048C1395.26 716.644 1411.11 720.55 1413.3 717.039C1415.39 708.983 1415.11 684.072 1420.44 679.026C1426.76 673.022 1458.61 676.183 1467.83 677.749C1471.74 687.735 1466.81 705.837 1470.96 713.786C1476.34 720.884 1498.14 714.516 1507.3 720.322C1506.42 727.846 1509.45 761.937 1506.86 765.92C1504.9 768.929 1472.94 766.3 1466.77 770.768C1467.57 780.526 1465.37 790.253 1465.04 799.631C1464.61 811.304 1463.62 838.177 1466.57 847.783C1473.79 871.387 1491.09 853.604 1500.22 859.592C1504.17 862.176 1508.99 882.619 1509.08 887.985C1509.4 906.163 1486.09 917.243 1471.66 918.687C1432.86 922.578 1409.21 908.047 1405.17 865.11C1408.18 856.887 1406.21 846.354 1406.58 837.462C1406.66 835.395 1408.1 833.374 1408.1 832.796V801.273C1408.1 800.604 1409.57 797.823 1409.66 795.087C1409.66 789.114 1411.14 777.243 1406.64 773.686H1406.62Z" fill="#FF8063"/>
<path d="M1469.49 453.682C1469.64 453.804 1469.18 455.673 1469.91 456.372C1470.73 457.163 1472.27 456.661 1472.42 456.843C1473.35 457.999 1473.71 460.035 1473.88 461.57C1469.02 460.871 1471.45 463.455 1471.66 466.312C1475.01 511.089 1473.41 557.614 1473.85 602.68C1473.88 605.34 1472.92 609.687 1475.34 611.328C1475.31 613.426 1475.39 615.538 1475.34 617.636C1472.98 619.125 1472.95 625.509 1475.34 627.09C1475.29 628.139 1475.42 629.203 1475.34 630.236C1469.99 629.035 1474.03 639.933 1469.49 644.417C1459.08 645.861 1450.35 644.478 1441.05 644.356C1434.97 644.447 1415.56 648.338 1411.03 643.596C1403.71 635.921 1411.58 588.864 1406.62 576.628C1406.65 575.58 1406.59 574.531 1406.62 573.482C1411.05 574.364 1409.44 571.066 1409.54 568.041C1409.89 558.45 1410.52 546.276 1408.08 537.232C1408.36 531.244 1409.54 522.139 1409.54 517.534V489.157C1409.54 488.61 1410.93 486.527 1411.06 484.491C1411.72 474.186 1409.74 467.103 1413.94 456.843C1417.81 449.867 1425.49 453.834 1430.68 453.758C1436.22 453.667 1467.5 452.208 1469.49 453.697V453.682Z" fill="#FF8063"/>
<path d="M1434.01 353.185C1466.43 347.607 1491.98 383.218 1470.95 413.495C1447.04 447.891 1398.83 422.584 1405.52 380.771C1407.63 367.578 1422.36 355.206 1434.03 353.185H1434.01Z" fill="#FF8063"/>
<path d="M1470.95 713.786C1466.8 705.837 1471.72 687.735 1467.82 677.749C1458.59 676.183 1426.76 673.037 1420.43 679.026C1415.11 684.072 1415.38 708.983 1413.28 717.039C1411.09 720.55 1395.24 716.644 1390.09 720.048C1386.64 722.328 1386.55 762.272 1388.66 767.029C1391.41 773.2 1401.23 770.495 1406.61 773.686C1393.84 774.507 1385.74 774.036 1384.63 758.761C1384.1 751.495 1383.64 720.915 1389.42 717.312C1393.46 714.789 1410.15 716.081 1410.93 715.276C1413.16 707.007 1412.78 682.005 1418.34 676.776C1424.1 671.35 1460.76 671.183 1467.35 675.895C1474.44 680.986 1469.5 704.788 1470.95 713.786Z" fill="#FF8063"/>
<path d="M1473.88 461.57C1478.82 505.936 1476.02 565.609 1475.34 611.328C1472.92 609.686 1473.88 605.339 1473.85 602.68C1473.41 557.614 1475.01 511.104 1471.66 466.312C1471.45 463.455 1469.02 460.871 1473.88 461.57Z" fill="#FF8063"/>
<path d="M1413.94 456.843C1414.83 454.67 1414.13 453.165 1416.91 451.402C1422.11 448.089 1463.79 447.542 1468.44 450.581C1470.01 451.6 1469.35 453.576 1469.5 453.697C1469.99 454.153 1473.44 452.785 1472.42 456.843C1472.29 456.661 1470.75 457.178 1469.91 456.372C1469.18 455.673 1469.66 453.804 1469.49 453.682C1467.5 452.192 1436.22 453.652 1430.69 453.743C1425.49 453.834 1417.81 449.852 1413.94 456.828V456.843Z" fill="#FF8063"/>
<path d="M1405.17 865.125C1404.45 857.51 1405.17 851.795 1405.17 845.427V807.596C1405.17 807.033 1406.58 804.982 1406.69 802.93C1407.16 793.689 1406.03 784.478 1408.1 775.282C1410.5 779.903 1409.86 789.311 1409.66 795.102C1409.57 797.838 1408.1 800.619 1408.1 801.288V832.811C1408.1 833.389 1406.67 835.426 1406.58 837.477C1406.23 846.369 1408.19 856.902 1405.17 865.125Z" fill="#FF8063"/>
<path d="M1468.03 644.432C1466.97 648.278 1464.12 647.275 1461.48 647.624C1452.57 648.81 1417.28 651.47 1411.46 647.092C1399.6 634.948 1406.84 594.336 1406.62 576.659C1411.58 588.879 1403.72 635.936 1411.03 643.627C1415.56 648.384 1434.97 644.478 1441.05 644.387C1450.03 644.265 1457.88 646.195 1468.03 644.447V644.432Z" fill="#FF8063"/>
<path d="M1472.41 715.367C1479.37 716.112 1503.03 713.573 1507.62 717.981C1508.82 719.136 1510.25 723.574 1510.48 725.55C1511.07 730.718 1511 761.025 1509.66 764.217C1509.33 765.023 1504.25 770.555 1503.84 770.555H1469.47L1466.56 847.798C1463.62 838.177 1464.6 811.32 1465.02 799.647C1465.37 790.269 1467.56 780.541 1466.75 770.783C1472.92 766.315 1504.89 768.944 1506.85 765.935C1509.42 761.968 1506.41 727.876 1507.29 720.337C1498.37 715.169 1479.29 719.562 1472.41 715.382V715.367Z" fill="#FF8063"/>
<path d="M1408.08 537.232C1410.52 546.276 1409.89 558.466 1409.54 568.041C1409.44 571.081 1411.05 574.364 1406.62 573.482C1407 561.429 1407.55 549.285 1408.08 537.232Z" fill="#FF8063"/>
<path d="M1475.34 630.236C1474.98 635.86 1475.9 643.231 1469.49 644.417C1474.03 639.933 1469.97 629.02 1475.34 630.236Z" fill="#FF8063"/>
<path d="M1475.34 627.09C1472.95 625.509 1472.98 619.125 1475.34 617.636C1475.28 620.782 1475.48 623.959 1475.34 627.09Z" fill="#FF8063"/>
<path d="M1235.83 321.266C1240.13 321.266 1245.13 325.142 1245.13 335.903C1245.13 372.944 1222.23 414.301 1182.51 414.301C1157.11 414.301 1137.78 409.133 1121.69 401.807C1131.35 481.496 1122.4 609.413 1148.16 610.279C1156.39 610.705 1158.89 611.997 1158.89 616.739C1158.18 636.984 1110.23 651.621 1092.7 651.621C1076.6 651.621 1065.51 646.454 1065.51 610.279C1065.51 594.335 1074.1 493.549 1074.1 417.751C1074.1 400.515 1073.73 384.145 1072.67 370.8C1055.84 359.173 1038.67 349.689 1013.63 349.689C962.823 349.689 944.219 397.931 944.219 447.025C944.219 498.717 964.966 551.261 991.808 551.261C995.38 551.261 999.681 552.127 999.681 554.711C999.681 555.577 999.316 556.869 997.888 558.587C986.078 572.798 971.76 579.258 956.379 579.258C916.298 579.258 873.011 533.174 873.011 453.484C873.011 401.792 915.599 325.552 1005.76 325.552C1065.16 325.552 1092 345.372 1190.75 345.372C1223.31 345.372 1230.83 334.17 1230.83 325.993C1230.83 322.984 1232.97 321.251 1235.85 321.251L1235.83 321.266Z" fill="#FF8A6F"/>
</g>
<defs>
<clipPath id="clip0_510_1001">
<rect width="2486.41" height="1255" fill="white" transform="translate(0.225586)"/>
</clipPath>
</defs>
</svg>
