<?xml version="1.0" encoding="UTF-8"?>
<svg id="Layer_2" data-name="Layer 2" xmlns="http://www.w3.org/2000/svg" xmlns:xlink="http://www.w3.org/1999/xlink" viewBox="0 0 933 831">
  <defs>
    <style>
      .cls-1 {
        fill: #2a1b18;
      }

      .cls-2 {
        filter: url(#drop-shadow-1);
      }

      .cls-2, .cls-3 {
        fill: #ff8063;
      }

      .cls-4 {
        fill: #fff;
      }
    </style>
    <filter id="drop-shadow-1" x="0" y="0" width="933" height="831" filterUnits="userSpaceOnUse">
      <feOffset dx="-3" dy="7"/>
      <feGaussianBlur result="blur" stdDeviation="5"/>
      <feFlood flood-color="#000" flood-opacity=".54"/>
      <feComposite in2="blur" operator="in"/>
      <feComposite in="SourceGraphic"/>
    </filter>
  </defs>
  <g id="Layer_1-2" data-name="Layer 1">
    <g>
      <rect class="cls-2" x="18.27" y="8.29" width="902.22" height="800.38" rx="24" ry="24"/>
      <g>
        <path d="M321.03,292.94c-5.95-1.58-11.79.4-13.1,6.95,3.22,4.9,7.89,7.96,10.29,13.6,5.3,12.46-2.12,20.62-14.25,22.86-14.47,2.67-31.85-1.46-37.46-16.54-2.28-6.15-2.06-13.98-4-19.1-2.07-5.47-9.89-3.28-14.41-3.74-18.81-1.93-37.56-4.96-56.16-8.28l-2.73,1.39c-2.5,10.41,4.79,9.01,10.63,13.89,2.87,2.39,5.19,5.33,5.68,9.17,2.34,18.32-23.42,18.62-35.59,14.96-13.89-4.18-17.27-26-21.75-37.75-2.22.88-5.68,1.59-7.32,3.37-.45.49-4.61,8.15-4.61,8.64-.01,1.56,6.75,4.83,8.71,6.97,9.18,10.02,7.42,25.79-7.66,27.86-24.78,3.4-38.94-8.57-40.66-33.18-.76-10.81,3.43-15.23,4.19-23.92.89-10.23-2.71-24.02-2.54-34.65.18-11.15,5.1-24.34,9.15-34.63-6.34-3.98-14.89-13.01-16.97-20.27-3.48-12.16-2.75-29.42,1.68-41.26,2.32-6.22,10.76-21.96,18.77-20.51,8.36,1.52-.49,18.34-1.03,24.22-.94,10.28.96,24.33,8.25,32.16,1.66,1.79,6.23,5.52,8.6,5.36,2.54-.18,16.33-7.77,21.3-9.28,28.71-8.73,49.72-1.44,77.75.25,15.46.93,26.41.21,32.78-15.15,6.84-16.5,10.43-43.77,26.31-54.56,2.72-1.85,5.77-2.02,8.14-3.42,1.58-.93,2.64-2.95,4.26-3.99,23.72-15.37,53.39-17.64,76.59,0,3.95,3.01,13.88,14.33,15.99,15.37,17.35,8.57,53.22-6.34,55.87,23.35,2.52,28.17-22.31,50.82-49.1,53.2-4.13.37-20.86-.57-23.11,1.64-1.55,1.52-1.69,20.73-2.14,25.09-2.48,23.75-8.86,47.3-11.48,71.08.14,2.02,6.41,3.67,8.69,5.35,7.46,5.49,11.55,15.72,5.72,23.87-6.8,9.51-32.76,9.66-41.91,4.06-9.4-5.75-11.49-24.47-11.34-34.45ZM413.95,131.12h-12.38c-1.17,0-11.19-2.21-12.96-2.72-8.02-2.31-11.61-10.05-17.55-15.46-16.42-14.94-38.15-16.42-58.18-7.8-4.05,1.74-7.05,3.94-10.68,6.26,2.78,6.34,5.95,12.12,7.77,18.89,6.21,23.07,5.79,62.52-7.99,82.77-8.45,12.42-23.68,19.78-37.75,11.66-12.27-7.09-14.75-23.72-14.08-36.67-3.49.4-2.96,6.73-3.89,9.72-8.62,27.57-41.74,40.09-66.8,25.9-12.91-7.31-20.09-21.81-18.43-36.44-30.5,2.75-51.57,22.99-53.67,54.01-.88,13.04,2.8,26.44,1.67,38.8-.57,6.25-3.8,11.79-4.14,18.13-.76,14.13,4.72,32.49,21.88,31.84,1.33-.05,2.33.58,2.09-1.27-.53-4.16-7.62-5.96-3.59-10.37,7.07-.52,8.98,6.41,11.41,11.58,7.01-2.71,6.48-8.65,2.76-14.28-5.57-8.41-12.53-5.19-8.54-19.54,3.37-12.12,10.27-10.83,19.42-16.06,4.3-2.46,9.45-6.83,11.9-11.21,1.5-2.68,2.79-10.6,5.02-10.74,8.35-.52,3.59,14.01-.42,17.39,11.8,3.1,23.91,5.6,36.01,7.32,14.02,1.99,30.38,3.98,44.45,5.06,1.64.13,11.92.82,12.53.69.54-.12,1.1.06,1.52-.62.65-8.34.51-16.95,2.77-25.16,2.32-1.57,4.35.16,4.86,2.59,1.64,7.84-.23,15.83.15,23.78.3,6.33,1.68,17.74,3.57,23.66,3.65,11.42,12.53,17.16,24.52,16.33.04-1.68.15-3.36-.37-5-.41-1.28-7.97-8.78-1.08-8.07,6.19.65,7.64,11.31,10.9,11.42,2,.07,3.94-1.97,4.4-3.89,2.97-12.61-11.38-14.1-11.4-21.27l8.74-29.26c8.18-5.84,6.15,5.94,4.5,10.68,32.8-3.98,47.24-32.14,50.32-62.31.98-9.63-1.06-20.21,4.11-28.82-5.42-2.79-20.41-9.91-16.87-17.77,3.54-7.87,12.83,5.31,16.32,7.57,22.2,14.39,65.67,1.64,69.05-27.39-15.4,7.69-28.79-7.23-20.95-22.22l-.91-1.71ZM354.95,270.58c-1.43-.37-1.65.59-2.48,1.23-3.43,2.63-6.61,6.53-10.45,9.36-2.23,1.64-11.09,6.3-11.84,7.14-1.39,1.56-.96,10.46-.71,13.11,1.49,15.56,9.28,25.33,25.94,21.21,1.96-4.68-3.74-7.04-2.95-11.61,6.76-3.1,9.35,9.26,12.07,9.78,4.95.94,4.38-7.02,2.82-10.24-3.78-7.76-15-6.94-16.19-11.89l3.77-28.09ZM180.76,287.16c-4.95-.89-24.56-8.07-24.45,1,.09,7.12,10.21,36.18,21.23,33.57-1.07-1.93-4.66-8.77-.39-9.13,6.04-.5,4.38,12.03,11.95,9.14,1.11-2.08-3.14-8.37-.4-9.08,4.02-1.04,4.79,7.96,7.39,7.42,3.05-.64,2.21-5.98.81-8.21-4.16-6.63-12.85-5.18-14.61-9.32s-1.22-10.84-1.53-15.39Z"/>
        <path class="cls-4" d="M413.95,131.12l.91,1.71c-7.84,14.99,5.54,29.91,20.95,22.22-3.39,29.03-46.86,41.78-69.05,27.39-3.49-2.26-12.78-15.44-16.32-7.57-3.54,7.87,11.45,14.99,16.87,17.77-5.17,8.61-3.13,19.19-4.11,28.82-3.08,30.17-17.52,58.33-50.32,62.31,1.65-4.74,3.68-16.52-4.5-10.68l-8.74,29.26c.03,7.17,14.38,8.66,11.4,21.27-.45,1.92-2.4,3.96-4.4,3.89-3.26-.11-4.71-10.77-10.9-11.42-6.89-.72.67,6.79,1.08,8.07.52,1.64.42,3.32.37,5-11.99.83-20.87-4.91-24.52-16.33-1.89-5.92-3.27-17.32-3.57-23.66-.38-7.95,1.5-15.95-.15-23.78-.51-2.43-2.54-4.16-4.86-2.59-2.25,8.21-2.11,16.83-2.77,25.16-.42.68-.98.5-1.52.62-.61.13-10.89-.56-12.53-.69-14.07-1.08-30.43-3.07-44.45-5.06-12.1-1.72-24.21-4.22-36.01-7.32,4.02-3.38,8.78-17.91.42-17.39-2.23.14-3.52,8.06-5.02,10.74-2.45,4.37-7.6,8.75-11.9,11.21-9.16,5.23-16.05,3.94-19.42,16.06-3.99,14.35,2.97,11.13,8.54,19.54,3.73,5.63,4.25,11.58-2.76,14.28-2.43-5.17-4.34-12.1-11.41-11.58-4.03,4.41,3.06,6.2,3.59,10.37.24,1.85-.76,1.22-2.09,1.27-17.16.65-22.64-17.71-21.88-31.84.34-6.34,3.57-11.88,4.14-18.13,1.13-12.36-2.55-25.76-1.67-38.8,2.1-31.02,23.16-51.25,53.67-54.01-1.66,14.64,5.51,29.13,18.43,36.44,25.06,14.18,58.18,1.67,66.8-25.9.93-2.98.41-9.32,3.89-9.72-.67,12.94,1.81,29.58,14.08,36.67,14.08,8.13,29.3.76,37.75-11.66,13.78-20.25,14.2-59.7,7.99-82.77-1.82-6.78-4.99-12.56-7.77-18.89,3.63-2.33,6.63-4.52,10.68-6.26,20.03-8.62,41.76-7.14,58.18,7.8,5.94,5.41,9.53,13.15,17.55,15.46,1.77.51,11.79,2.72,12.96,2.72h12.38ZM369.58,123.83c-7.67,1.17-3.85,21.62,4.82,16.42,4.48-2.69,1.4-17.37-4.82-16.42ZM336.54,129.63c-5.61,1.72-2.55,16.99,2.11,19.02,12.58,5.47,9.43-22.56-2.11-19.02Z"/>
        <path class="cls-4" d="M354.95,270.58l-3.77,28.09c1.19,4.94,12.41,4.13,16.19,11.89,1.57,3.21,2.13,11.18-2.82,10.24-2.73-.52-5.32-12.88-12.07-9.78-.79,4.57,4.9,6.93,2.95,11.61-16.66,4.12-24.45-5.64-25.94-21.21-.25-2.65-.69-11.55.71-13.11.75-.84,9.61-5.5,11.84-7.14,3.84-2.82,7.01-6.72,10.45-9.36.83-.63,1.05-1.6,2.48-1.23Z"/>
        <path class="cls-4" d="M180.76,287.16c.3,4.55-.28,11.15,1.53,15.39s10.44,2.7,14.61,9.32c1.4,2.22,2.24,7.57-.81,8.21-2.6.55-3.37-8.46-7.39-7.42-2.73.71,1.51,7,.4,9.08-7.57,2.89-5.91-9.64-11.95-9.14-4.27.36-.67,7.2.39,9.13-11.02,2.61-21.14-26.45-21.23-33.57-.11-9.07,19.5-1.9,24.45-1Z"/>
        <path d="M336.54,129.63c11.54-3.54,14.69,24.49,2.11,19.02-4.67-2.03-7.72-17.3-2.11-19.02Z"/>
        <path d="M369.58,123.83c6.22-.95,9.3,13.72,4.82,16.42-8.67,5.2-12.48-15.25-4.82-16.42Z"/>
      </g>
      <g>
        <path d="M850.07,291.53c9.21.57,4.56,10.86,1.5,15.95-8.99,14.96-30.61,29.75-47.52,33.76-2.04,8.08-5.31,19.95-12.96,24.58-1.62.98-4.39.99-5.21,1.81-.63.62-.97,3.22-2.2,4.81-5.86,7.63-33.47,5.44-42.98,5.7-10.89.3-21.98,1.53-33.01.89-6.07-.35-18.58-1.13-21.21-7.67-.93-2.3.04-4.82-1.87-6.39-1.83-.39-4.98,4.99-6.26,6.1-8.63,7.54-37.96,7.91-48.81,5.24-3.67-.91-7.36-4.48-9.35-4.75-2.2-.3-9.04,2.18-12.33,2.47-6.44.55-21.12.34-26.4-3.28-9.59-6.58-2.63-19.11,3.3-25.59,2.14-2.34,8.32-6.18,9.05-7.45,3.82-6.65,6.6-33.9,7.04-42.47.2-3.93.74-17.07-1.16-19.45-1.08-1.35-3.48-2.02-4.63-3.62-4.8-6.64-1.32-18.02-.74-25.53-9.96-1.98-6.76-13.08-4.61-20.3,2.5-8.39,7.74-14.41,11.14-22.27-5.86,4.05-10.92.64-16.27-.64-1.77-.42-3.64.05-5.4-.37-8.68-2.1-13.48-14.35-12.96-22.5.54-8.44,6.09-17.73,6.36-25.82.16-4.55-1.61-9.66-1.46-14.66.49-16.36,11.33-25.16,21.09-35.85,6.54-7.17,6.18-13.07,9.1-21.43,12.97-37.06,70.96-40.63,98.58-17.79,20,16.54,17.43,28.95,26,49.92,4.1,10.04,13.17,18.49,12.79,30.1-.16,4.8-2.8,9.78-3.23,14.16-.64,6.64,4.32,11.98,6.28,18.3,2.96,9.54,3.42,19.06-5.16,25.74,7.19,13.72,21.22,22.37,31.4,33.83,9.87,11.11,20.32,27.04,26.12,40.71,2.27,5.36,3.49,11.03,6.06,16.23,7.49-6.19,11.42-17.31,13.87-26.54,2.37-8.95,3.68-18.2,3.02-27.49-.43-6.03-4.78-18.71,4.72-20.88,18.01-4.11,22.87,25.29,22.09,37.79,1.01,1.87,2.86-1.89,4.31-2.33,8.98-2.73,8.38,13.54,7.46,19.02-1.04,6.17-4.35,11.83-5.57,17.94ZM741.44,223.58c-2.84-2.85-10.16-12.85-13.25-13.57-1.89-.43-3.99-.06-6.08-.52-1.63-.35-3.2-2.05-4.47-2.09-2.42-.08-6.75,4.3-10.54,3.92-3.16-.32-7.07-4.79-8.3-4.67-1.33.13-3.88,2.75-6.82,3.12-7.27.92-13.56-4.41-16.42-10.66-6.71-14.65,3.42-25.96,1.97-39.11-.36-3.24-2.07-6.64-2.38-9.99-1.51-16.34,8.43-26.59,14.61-39.84,1.99-4.28,3.86-13.04,6.09-16.19,2.23-3.15,5.21-.86,5.67,2.47,1.16,8.52-10.08,25.76-13.88,33.88-1.21,2.59-4.88,10.08-5.04,12.36-.38,5.64,3.33,13.92,3.32,20.53,0,12.31-12.2,32.33,3.66,39.96,7.76-1.64,5.87-11.04,7.85-16.03,1.95-4.92,4.04.61,4.97,3.26,1.69,4.77.79,11.63,6.86,12.69,4.94-3.14,5.23-9.61,7.15-14.29.39-.95.59-2.39,2.04-2.07,4.53.98,1.84,17.18,8.22,16.54,5.43-2.57,8.89-10.37,8.77-16.13-.21-10.07-9.35-16.77-8.1-27.02.48-3.95,2.87-8.65,3.1-12.62.55-9.27-8.32-20.05-11.95-28.47-6.04-14.01-5.75-25.51-15.78-38.69-22.96-30.16-88.39-30.36-95.85,12.1-1.18,6.72.03,15.53-1.21,21.07-1.2,5.35-11.04,12.39-12.66,21.18-1.3,7.08.5,22.67,8.66,25.25,10.74,3.4,11.27-11.97,12.34-18.87-17.97-11.56-9.29-24.03,9.58-22.01s11.87,23.7-3.72,22.28c.8,10.19,2.3,21.24,15.27,20.68,9.14-.39,11.38-8.07,15.85-9s4.18,3.39,2.25,6.43c-6.24,9.84-23.54,14.31-32.27,5.53-1.41-1.42-1.69-4.4-4-4.71l-1.14.15c-1.58,3.73-5.28,6.51-9.18,7.32,2.43,7.33,11.63,5.92,16.78,7.55,1.34.42,1.55,1.53,1.41,2.75-.43,3.89-6.96,2.16-7.94,3.67-.1,19.71-19.74,36.27-21.78,54.98-.18,1.65.95,1.62,2,1.16s4.31-6.25,6.19-6.97c1.02-.39,3.72.62,4.1,1.75,1.29,3.84-12.76,26.95-6.94,34.12,4.47,5.5,5.55-12.58,9.89-7.39,2.16,2.58-1.43,13.4-1.24,17.68.13,3.02,1.81,10.45,4.21,12.34.74.58,2.78,1.64,3.62.51,1.98-2.67.2-17.72,6.25-13.67,1.5,1,2.17,10.69,3.01,13.49,1.75,5.82,6.59,11.84,12.2,14.19,3.04-.57,1.38-23.47,4.06-25.66.74-.61,1.55-.89,2.51-.78l2.76,2.27c.19,20.91.95,43.3-3.5,63.82-1.74,8.04-2.51,4.94-7.45,9.06-2.59,2.16-10.76,10.62-8.33,14.05,3.82,5.37,9.86-11.91,14.79-9.02,3.23,1-2.13,6.94-2.95,9.22-.37,1.03-.9,1.89-.64,3.06,8.19,2.78,8.74-11.78,14.57-12.28,5.12-.45-.2,10.88,1.1,12.28,15.13-.28,22.05-7.52,25.98-21.46,1.14-4.04,2.85-23.09,3.73-23.93,3.3-3.12,4.45,9.35,5.77,10.33l2.3-2.67c-.55-15.06-.27-30.17-.61-45.24-.08-3.62-3.64-17.5,2.81-16.92,5.3.47,3.98,18.22,5.38,22.76.36,1.17-.49,1.45,1.66,1.2,3.8-18.98,20.9-33.59,40.77-31.27,3.7.43,16.75,4.71,14.16,9.8-2.2,4.32-8.92-.96-12.3-1.76-32.27-7.7-52.28,45.11-23.21,67.77,2.35,1.83,9.45,4.9,10.35,6.14,1.42,1.96,1.41,4.93-1.3,5.43-5.32.98-13.15-.68-18.91.07-8.03,1.05-17.63,8.95-18.58,17.19l4.48,2.52c1.43-.02,2.71-10.49,8.23-10.74,1.75-.08,1.48.62,1.22,2.05-.5,2.81-3.17,5.6-3.27,8.7,8.78,3.31,6.41-4,10.69-7.87,1.25-1.13,6-3.82,5.84-.78s-3.13,5.36-2.43,8.14l1.13,1.03,47.8-1.45c2.27-.65,8.88-1.28,10.01-3.22.54-.94.15-2.42.59-3.09.53-.82,9.9-3.96,13.02-8.03,16.17-21.04.68-67.5-11.71-88.13-10.7-17.82-23.26-28.63-37.51-42.94ZM620.48,363.13c1.23-3.77,2.72-6.96,5.16-10.1s10.57-8.84,11.34-10.94c2.44-6.75,1.04-18.79,2.67-26.17-.68-3.74-10.15-7.84-13.24-10.73-1.59-1.5-3.93-5.9-5.77-6.66s-8.68,1.9-11.52-2.04c-1.4,1.12-2.79,23.46-3.52,27.43-.72,3.88-4.07,16.82-6.35,19.23-1.39,1.47-3.94,2.27-5.4,3.67-2.08,2-10.01,12.69-9.39,15.1,5.97,7.78,6.87-2.71,9.46-6.78,1.16-1.82,4.93-5.43,6.01-2.01,1.18,3.71-3.6,8.11-4.02,11.82,9.12,4.98,6.87-9.25,12.82-9.92,6.63-.74-.56,10.41.39,11.58l11.35-3.49ZM703.05,325.51c-.8-.46-2.18-.03-3.16-.15-.08,4.6-.14,11.04-2.94,14.8-2.08,2.8-5.92,3.32-7.32,5.88-.54.99-3.43,10.07-3.59,11.28-.23,1.63-.51,2.42,1.06,3.5,5.22-10.24,14.54-16.68,25.99-18.15,1.35-1.59-5.92-8.71-7.13-10.6-.84-1.31-2.6-6.39-2.91-6.57Z"/>
        <path class="cls-4" d="M741.44,223.58c14.25,14.31,26.81,25.12,37.51,42.94,12.38,20.63,27.88,67.09,11.71,88.13-3.13,4.07-12.49,7.2-13.02,8.03-.44.67-.04,2.16-.59,3.09-1.12,1.94-7.74,2.57-10.01,3.22l-47.8,1.45-1.13-1.03c-.7-2.78,2.28-5.1,2.43-8.14s-4.59-.35-5.84.78c-4.28,3.87-1.92,11.18-10.69,7.87.1-3.1,2.77-5.89,3.27-8.7.25-1.43.53-2.13-1.22-2.05-5.52.25-6.8,10.73-8.23,10.74l-4.48-2.52c.95-8.24,10.55-16.15,18.58-17.19,5.76-.75,13.59.91,18.91-.07,2.71-.5,2.72-3.47,1.3-5.43-.9-1.24-8-4.31-10.35-6.14-29.08-22.65-9.06-75.47,23.21-67.77,3.37.8,10.1,6.08,12.3,1.76,2.59-5.09-10.46-9.37-14.16-9.8-19.87-2.32-36.97,12.29-40.77,31.27-2.15.25-1.3-.03-1.66-1.2-1.4-4.54-.08-22.29-5.38-22.76-6.46-.58-2.89,13.3-2.81,16.92.33,15.07.06,30.17.61,45.24l-2.3,2.67c-1.32-.98-2.47-13.45-5.77-10.33-.88.83-2.59,19.89-3.73,23.93-3.93,13.94-10.85,21.18-25.98,21.46-1.31-1.41,4.02-12.73-1.1-12.28-5.83.51-6.39,15.07-14.57,12.28-.25-1.17.27-2.03.64-3.06.82-2.28,6.17-8.22,2.95-9.22-4.93-2.89-10.97,14.39-14.79,9.02-2.44-3.43,5.74-11.89,8.33-14.05,4.93-4.11,5.7-1.02,7.45-9.06,4.45-20.53,3.69-42.91,3.5-63.82l-2.76-2.27c-.96-.1-1.77.18-2.51.78-2.68,2.19-1.03,25.09-4.06,25.66-5.61-2.36-10.45-8.38-12.2-14.19-.84-2.8-1.51-12.49-3.01-13.49-6.05-4.05-4.27,11-6.25,13.67-.84,1.13-2.88.08-3.62-.51-2.4-1.89-4.08-9.32-4.21-12.34-.19-4.28,3.4-15.1,1.24-17.68-4.34-5.19-5.42,12.9-9.89,7.39-5.81-7.16,8.24-30.27,6.94-34.12-.38-1.13-3.07-2.14-4.1-1.75-1.88.72-5.15,6.5-6.19,6.97s-2.18.5-2-1.16c2.03-18.71,21.68-35.27,21.78-54.98.99-1.51,7.51.23,7.94-3.67.13-1.22-.07-2.32-1.41-2.75-5.15-1.62-14.35-.22-16.78-7.55,3.9-.81,7.6-3.59,9.18-7.32l1.14-.15c2.31.31,2.59,3.29,4,4.71,8.73,8.78,26.03,4.31,32.27-5.53,1.93-3.04,2.35-7.38-2.25-6.43s-6.71,8.6-15.85,9c-12.98.56-14.47-10.49-15.27-20.68,15.58,1.41,23-20.22,3.72-22.28s-27.54,10.45-9.58,22.01c-1.07,6.9-1.61,22.27-12.34,18.87-8.15-2.58-9.95-18.17-8.66-25.25,1.61-8.79,11.46-15.83,12.66-21.18,1.24-5.54.03-14.35,1.21-21.07,7.46-42.47,72.89-42.27,95.85-12.1,10.03,13.17,9.73,24.68,15.78,38.69,3.63,8.42,12.5,19.19,11.95,28.47-.24,3.97-2.62,8.67-3.1,12.62-1.24,10.26,7.89,16.95,8.1,27.02.12,5.76-3.33,13.55-8.77,16.13-6.38.64-3.7-15.55-8.22-16.54-1.45-.31-1.65,1.12-2.04,2.07-1.92,4.69-2.21,11.15-7.15,14.29-6.07-1.06-5.18-7.92-6.86-12.69-.94-2.65-3.03-8.19-4.97-3.26-1.97,4.99-.08,14.38-7.85,16.03-15.86-7.63-3.66-27.66-3.66-39.96,0-6.61-3.71-14.89-3.32-20.53.15-2.28,3.83-9.77,5.04-12.36,3.8-8.12,15.04-25.36,13.88-33.88-.45-3.33-3.43-5.62-5.67-2.47-2.23,3.14-4.1,11.91-6.09,16.19-6.17,13.25-16.12,23.5-14.61,39.84.31,3.35,2.02,6.76,2.38,9.99,1.44,13.15-8.68,24.46-1.97,39.11,2.86,6.25,9.15,11.59,16.42,10.66,2.94-.37,5.49-3,6.82-3.12,1.24-.12,5.15,4.36,8.3,4.67,3.79.38,8.12-4,10.54-3.92,1.27.04,2.84,1.73,4.47,2.09,2.1.45,4.19.08,6.08.52,3.09.71,10.41,10.72,13.25,13.57ZM622.91,92.01c-4.17,1.25-8.2,14.93-.87,15.26,6.48.29,8.57-10.13,5.67-14.62-1.18-1.16-3.3-1.09-4.8-.64ZM657.59,96.92c-4.58.89-8.02,11.78-5.13,14.71,9.28,7.17,13.65-16.37,5.13-14.71Z"/>
        <path class="cls-4" d="M620.48,363.13l-11.35,3.49c-.94-1.18,6.24-12.32-.39-11.58-5.95.67-3.71,14.9-12.82,9.92.43-3.71,5.2-8.11,4.02-11.82-1.08-3.42-4.86.19-6.01,2.01-2.59,4.07-3.5,14.55-9.46,6.78-.62-2.42,7.31-13.1,9.39-15.1,1.46-1.4,4.02-2.2,5.4-3.67,2.27-2.41,5.63-15.35,6.35-19.23.73-3.97,2.12-26.31,3.52-27.43,2.84,3.94,9.73,1.3,11.52,2.04s4.17,5.16,5.77,6.66c3.08,2.89,12.56,7,13.24,10.73-1.63,7.38-.23,19.42-2.67,26.17-.76,2.11-9.01,7.96-11.34,10.94-2.44,3.14-3.93,6.34-5.16,10.1Z"/>
        <path class="cls-4" d="M703.05,325.51c.31.18,2.07,5.26,2.91,6.57,1.21,1.89,8.48,9.01,7.13,10.6-11.45,1.46-20.77,7.9-25.99,18.15-1.58-1.08-1.29-1.87-1.06-3.5.17-1.21,3.06-10.29,3.59-11.28,1.4-2.56,5.24-3.09,7.32-5.88,2.8-3.76,2.87-10.21,2.94-14.8.98.12,2.36-.31,3.16.15Z"/>
        <path d="M622.91,92.01c1.5-.45,3.62-.52,4.8.64,2.9,4.49.81,14.91-5.67,14.62-7.33-.33-3.31-14,.87-15.26Z"/>
        <path d="M657.59,96.92c8.52-1.65,4.15,21.88-5.13,14.71-2.88-2.94.56-13.83,5.13-14.71Z"/>
      </g>
      <g>
        <path d="M664.17,686.04c0-.2.95-.63.48-1.25l-1.73-.86-16.96,1.23c-3.68,12.33-5.08,34.52-14.84,43.74-9.67,9.13-31.74,10.33-43.68,5.81-10.6-4.01-11.97-14.06-5.39-22.7,2.21-2.9,8.39-6.59,9.55-8.6,1.71-2.96-.35-13.96-.4-17.84l-10.87-2.38c-1.16-.13-1.38.5-1.81,1.37-1.58,3.24-2.56,13.01-3.88,17.57-6.97,24.04-19.04,34.52-45.14,29.46-11.17-2.16-18.09-10.47-13.44-22.03,2.92-7.26,12.09-9.31,13.25-13.97.06-5.39-.04-11.62-.47-16.97-.31-3.85-.79-11.43-1.71-14.8s-5.71-7.85-7.71-11.27c-3.44-5.89-5.49-12-5.42-18.92-14.95,1.35-14.28-16.86-11.98-27.23,1.72-7.72,5.41-13.19,8.69-20.14-3.4-5.83-4.64-12.2-6.22-18.65l-.87-.7c-12.58,4.05-9.96-12.9-7.79-20.34.89-3.06,6.05-12.51,4.61-14.47-1.13-1.53-4.47-.12-4.63-6.18-.24-9.65,14.21-23.47,18.05-32.29,3.52-8.09-.82-27.88-.74-37.85.08-9.18,4.28-33.01,11.16-39.2,2.79-2.51,4.51-2.78,8.28-2.45,10.36.9,29.92,19.48,37.15,27.23,1.83,1.96,6.01,8.71,7.84,9.48,3.2,1.35,9.59-.46,13.63-.43,4.41.04,15.37,2.95,18.49.4,1.94-1.59,3.83-6.36,5.48-8.54,7.64-10.09,26.05-29.59,38.93-31.28,7.36-.97,12.65,10.77,14.43,16.55,6.5,21.01,3.77,44.59.22,65.92,4.71,7.09,9.42,14.22,12.18,22.35s5.09,16.98,2.24,25.4l8.25-.83c-18.1-31.52,1.55-65.16,34.03-75.3,7.44-2.32,25.38-7.58,30.07.89,2.86,5.16-1.48,6.53,7.29,7.57,2.34.28,4.7-.17,7.2.22,14.47,2.29,37.88,15.87,35.24,33.16-.27,1.74-1.81,3.2-1.63,4.96.13,1.34,4.61,6.43,5.66,8.43,5.91,11.19,7.41,29.25,1.28,40.61-1.73,3.2-4.86,7.41-8.94,6.71-2.11-.36-2.77-3.22-4.18-1.67.4,18.9-11.38,34.16-28.48,41.08-1.09,6.31,1.74,12.48,1.73,18.76-.02,14.9-3.95,28.07-6.39,42.35-4.81,28.16-4.89,66.97-44.39,63.68-15.67-1.31-22.66-13.9-11.17-26,2.16-2.27,6.63-3.97,7.03-4.52,1.75-2.39,2.59-11.38,1.13-14.32-.99-1.98-9.67-12.12-11.43-10.43-1.61,7.33-3.28,14.94-5.56,22.09-6.82,21.36-10.64,31.58-36.11,29.07-22.23-2.2-15.28-22.69.4-28.46.01-4.4-.02-8.8,0-13.2ZM657.36,421.79c-.6-.57-1.93-.97-2.76-1.01-7.37-.42-23.45,14.55-28.37,20.21-3.81,4.39-9.92,15.59-13.16,18.2-3.6,2.9-12.36-.24-16.95-.51-4.15-.24-9.02-.07-13.23.05-3.5.1-7.56,2.39-10.9.26-2-1.28-8.82-11.5-11.38-14.31-5.77-6.34-14.96-14.7-22.45-18.8-7.83-4.28-9.67-4.81-12.86,4.14-3.97,11.15-4.47,25.63-3.93,37.4.53,11.51,4.51,19.23-.94,30.35-4.35,8.88-12.39,16.46-16.35,25.73,2.97.11,10.2-4.83,11.44.16.58,2.34-5.44,9.06-6.92,11.78-3.8,6.97-6.51,15.99-6.17,23.94,5.96-.73,4.38-11.38,12.25-7.3.26,6.38-1.48,12.77-.63,19.2.7,5.31,4.44,10.62,5.77,15.76-2.03,4.97-5.55,8.74-7.64,13.86-3.29,8.06-4.23,15.91-2.32,24.49,4.44.03,6.74-12.51,11.55-9.53,3.42,2.11.28,8.61,0,11.61-.73,7.97,1.4,17.78,6.25,24.26,2.42,3.23,5.04,5.94,9.42,5.02.7-.7-2.75-11.63.4-14.86l2.47-.81c3,6.34,3.96,12.48,7.99,18.42,2.82,4.16,11.02,13.57,16.42,9.91.92-3.82-4.29-8.05-2.75-11.6.14-1.11.3-1.28,1.46-1.09,4.1.7,9.12,11.56,12.83,14.42,1.68,1.29,11.72,6,13.16,4.59,1.76-6.48-5.49-25.51-.46-29.77,2.29-1.94,3.73,1.31,4.37,3.16,2.43,7.1,4.98,23.41,5.89,31.24.75,6.49,2.08,20.35.92,26.29-.6,3.07-5.18,4.12-7.36,5.85-2.8,2.23-10.38,11.15-5.85,14.02,4.1,2.6,5.28-9.56,10.34-9.51,3.54,3.41-1.12,6.96-1.95,10.46-.15,2.49,3.97,2.1,5.54,1.78.56-3.69,4.67-11.49,9.17-9.41,4,1.85-1.62,5.4-1.62,8.3,21.25,1.66,25.67-21.04,28.62-37.39,2.1-11.67.89-20.88,1.91-31.92.28-3.01.48-8.19,4.4-6.93,3.6,1.15,4.2,20.87,3.83,24.66,17.69-.81,35.97-4.26,51.26-13.59.84-1.11-3.52-12.99-4.01-15.91-.71-4.22-1.94-18.86,2.8-20.73.56-.22,1.93-.49,2,.38,2.2,11.59,2.43,21.76,7.49,32.82,5.1,11.16,11.04,14.02,17.21,22.4,4.12,5.61,2.83,14.05.41,20.2-3.44,8.71-6.69,5.76-11.01,10.44-3.09,3.35-4.47,9.87,1.57,9.85.9-2.88,2.72-9.18,6.88-7.85,3.85,1.24-2.28,6.47-1.14,9.01,23.01,3.68,28.86-14.36,32.77-32.83,5.43-25.7,12.31-63.54,5.79-88.64-10.05-38.71-42.79-54.58-80.9-53.49-2.48,2.19-.57,5.23-.51,7.84.14,6.4.98,12.14-3.36,17.34-5.73,6.88-8.27,1.52-14.83-.39.98,4.71-8.55,19.33-13.2,16.96-.7-.36-1.23-1.14-1.52-1.87-1.21-4.04,5.08-7.8,6.09-12.57.77-3.61-.62-12.44,1.52-14.15,5.34-4.27,11.12,7.53,14.12,7.3,7.15-5.45,4.93-17.05,1.07-23.98-1.42-2.54-8.94-9.55-3.37-11.16,4.45-1.29,7.78,4.65,12.61,3.17-.06-9.22-3.26-19.57-7.28-27.79-1.92-3.92-8.52-12.37-9.08-15.74-.46-2.71,2.7-13.93,3.15-17.96,1.6-14.39,1.33-29.12-2.2-43.16-.54-2.14-2.53-9.47-3.78-10.66ZM745.86,470.27c-34.67-.79-67.8,33.61-47.47,67.68,4.6,7.72,10.16,5.73,17.76,7.82,17.69,4.86,36.33,19.08,44.19,35.85,1.55,3.31,3.71,13.47,4.9,14.9,3.67,4.38,13.78-5.05,16.09-7.87,9.67-11.82,10.95-27.41.44-39.19-2.01-2.25-12.24-8.56-5.61-10.56,6.49-1.95,18.04,8.67,21.01,14.13,1.35,2.49,2.26,10.49,6.85,4.67,1.48-1.88,2.68-7.8,2.89-10.31,1.16-13.93-4.84-26.94-15.27-35.86-2.89-2.48-9.2-4.04-7.72-8.56,1.56-4.74,11.79,5,13.09,3.59,1.3-8.47-7.67-15.42-14.29-19.12-6.04-3.37-17.12-7.26-23.98-7.2-4.34.04-18.04,5.88-19.37.97-.48-4.62,5.06-6.87,6.49-10.95ZM534.21,723.59h13.2c6.1,0,13.19-8.06,15.71-13.17,2.66-5.4,8.82-25.61,7.81-30.97-.79-4.19-4.87-.42-7.75-.48-5.84-.13-13.88-6.07-18.24-9.84-3.33-2.89-2.49-5.46-9.49-4.11,1.18,10.25,2.66,22.3,1.64,32.58-1.13,11.39-6.75,6.08-11.98,12.78-3.25,4.17-4.47,10.92,2.08,11.57.39-5.31,3.45-9.7,9.09-7.42.34,4.38-6.53,4.01-2.06,9.07ZM697.17,674.08l-24,8.58c-2.18,4.93-.08,19.57-3.72,22.69-1.63,1.4-5.55,1.84-7.54,3.19-2.91,1.97-6.12,8.4-1.86,10.55,3.11,1.57,3.48-5.72,7.04-6.25,6.97-1.03,1.31,6.8,2.03,7.44,22.6,1.49,24.49-30.11,28.05-46.2Z"/>
        <path class="cls-4" d="M657.36,421.79c1.25,1.19,3.24,8.52,3.78,10.66,3.52,14.05,3.79,28.78,2.2,43.16-.45,4.03-3.6,15.25-3.15,17.96.56,3.37,7.16,11.81,9.08,15.74,4.03,8.23,7.22,18.58,7.28,27.79-4.83,1.48-8.16-4.45-12.61-3.17-5.57,1.61,1.95,8.62,3.37,11.16,3.86,6.93,6.08,18.53-1.07,23.98-3,.23-8.77-11.57-14.12-7.3-2.14,1.71-.76,10.54-1.52,14.15-1.01,4.77-7.31,8.52-6.09,12.57.29.73.82,1.51,1.52,1.87,4.65,2.37,14.18-12.25,13.2-16.96,6.55,1.92,9.09,7.27,14.83.39,4.34-5.2,3.51-10.94,3.36-17.34-.06-2.61-1.97-5.65.51-7.84,38.11-1.09,70.85,14.79,80.9,53.49,6.52,25.1-.35,62.94-5.79,88.64-3.91,18.47-9.76,36.52-32.77,32.83-1.14-2.54,4.99-7.77,1.14-9.01-4.16-1.34-5.98,4.96-6.88,7.85-6.03.02-4.65-6.51-1.57-9.85,4.32-4.68,7.57-1.73,11.01-10.44,2.43-6.16,3.72-14.59-.41-20.2-6.17-8.38-12.11-11.25-17.21-22.4-5.05-11.05-5.29-21.23-7.49-32.82-.08-.87-1.44-.6-2-.38-4.74,1.87-3.51,16.5-2.8,20.73.49,2.93,4.85,14.8,4.01,15.91-15.28,9.33-33.57,12.78-51.26,13.59.37-3.79-.23-23.5-3.83-24.66-3.92-1.26-4.13,3.91-4.4,6.93-1.02,11.05.19,20.26-1.91,31.92-2.95,16.36-7.38,39.05-28.62,37.39,0-2.9,5.61-6.46,1.62-8.3-4.5-2.08-8.61,5.72-9.17,9.41-1.58.32-5.69.71-5.54-1.78.82-3.5,5.49-7.05,1.95-10.46-5.06-.04-6.24,12.11-10.34,9.51-4.53-2.87,3.05-11.79,5.85-14.02,2.17-1.72,6.76-2.78,7.36-5.85,1.16-5.94-.16-19.8-.92-26.29-.91-7.83-3.46-24.14-5.89-31.24-.63-1.85-2.08-5.1-4.37-3.16-5.03,4.25,2.22,23.29.46,29.77-1.44,1.41-11.48-3.3-13.16-4.59-3.71-2.86-8.73-13.72-12.83-14.42-1.16-.2-1.31-.02-1.46,1.09-1.54,3.55,3.67,7.78,2.75,11.6-5.4,3.65-13.6-5.76-16.42-9.91-4.03-5.95-4.99-12.08-7.99-18.42l-2.47.81c-3.15,3.23.29,14.16-.4,14.86-4.38.92-7-1.79-9.42-5.02-4.85-6.48-6.99-16.3-6.25-24.26.28-3,3.41-9.5,0-11.61-4.81-2.97-7.11,9.57-11.55,9.53-1.91-8.58-.96-16.43,2.32-24.49,2.09-5.12,5.61-8.89,7.64-13.86-1.33-5.14-5.07-10.45-5.77-15.76-.85-6.42.89-12.81.63-19.2-7.87-4.08-6.28,6.57-12.25,7.3-.34-7.95,2.37-16.97,6.17-23.94,1.48-2.73,7.5-9.44,6.92-11.78-1.24-4.99-8.47-.05-11.44-.16,3.96-9.27,12-16.86,16.35-25.73,5.45-11.12,1.47-18.84.94-30.35-.54-11.77-.05-26.25,3.93-37.4,3.19-8.95,5.03-8.43,12.86-4.14,7.5,4.1,16.69,12.46,22.45,18.8,2.55,2.81,9.38,13.03,11.38,14.31,3.34,2.13,7.4-.16,10.9-.26,4.21-.12,9.07-.29,13.23-.05,4.59.27,13.35,3.41,16.95.51,3.24-2.61,9.35-13.81,13.16-18.2,4.92-5.66,20.99-20.63,28.37-20.21.82.05,2.16.44,2.76,1.01ZM535.21,439.84c-4.18,1.17-3.34,19.44-3.1,23.44.13,2.16.96,10.31,1.75,11.45,1.42,2.05,2.64,1.46,4.54.55,2.23-1.08,13.14-8.68,15.13-10.45,1.04-.92,2.4-1.55,2.5-3.19.24-4.74-12.72-18.78-16.99-20.96-1.3-.67-2.27-1.27-3.84-.83ZM645.81,439.91c-3.64.94-16.67,15.55-18.62,19.36-1.57,3.06-2.36,4.23.38,6.75,1.57,1.44,18.42,11.57,19.55,11.48.77-.06,1.55-.62,2.21-1.03.73-.84,1.56-8.72,1.67-10.71.33-5.78.61-15.96-.02-21.5-.18-1.55-.44-3.01-1.65-4.13-1.14-.68-2.3-.53-3.52-.22ZM553.36,496.01c-4.75,1.42-5.3,13.23-2.21,15.89,9.6,8.25,15.41-19.84,2.21-15.89ZM597.12,498.44c-6.54,1.26-8.38,19.46.63,18.94,7.82-.45,8.94-20.79-.63-18.94ZM561.16,539.7c6.61-1.44,13.8-6.84,10.37-14.33-3.17-6.94-32.76-8.33-26.39,7.4,2.32,5.71,11.57,5.84,10.77,11.99-.31,2.42-3.92,3.84-6.05,3.81-3.46-.05-7.06-5.58-9.76-4.79-6.79,6.64,6,11.92,11.55,12.24,3.37.19,5.27-1.53,7.31-1.5,4.1.06,7.93,4.52,16.44,3.17,4.33-.69,18.67-9.18,14.56-14.46-2.82-3.62-6.63,2.25-8.87,3.65-8.94,5.6-19.81,5.56-19.95-7.17Z"/>
        <path class="cls-4" d="M745.86,470.27c-1.43,4.08-6.97,6.33-6.49,10.95,1.33,4.9,15.04-.93,19.37-.97,6.86-.06,17.94,3.83,23.98,7.2,6.62,3.7,15.59,10.64,14.29,19.12-1.3,1.41-11.54-8.33-13.09-3.59s4.82,6.08,7.72,8.56c10.43,8.93,16.43,21.94,15.27,35.86-.21,2.51-1.41,8.43-2.89,10.31-4.59,5.83-5.49-2.18-6.85-4.67-2.97-5.47-14.52-16.09-21.01-14.13-6.63,2,3.6,8.31,5.61,10.56,10.51,11.77,9.23,27.37-.44,39.19-2.31,2.82-12.41,12.24-16.09,7.87-1.2-1.43-3.35-11.58-4.9-14.9-7.86-16.77-26.5-30.99-44.19-35.85-7.6-2.09-13.16-.1-17.76-7.82-20.32-34.07,12.8-68.47,47.47-67.68Z"/>
        <path class="cls-4" d="M534.21,723.59c-4.46-5.06,2.41-4.69,2.06-9.07-5.64-2.28-8.69,2.11-9.09,7.42-6.54-.65-5.33-7.41-2.08-11.57,5.23-6.7,10.85-1.39,11.98-12.78,1.02-10.28-.46-22.32-1.64-32.58,7-1.35,6.16,1.23,9.49,4.11,4.35,3.77,12.4,9.72,18.24,9.84,2.88.06,6.96-3.7,7.75.48,1.01,5.36-5.15,25.57-7.81,30.97-2.52,5.11-9.61,13.17-15.71,13.17h-13.2Z"/>
        <path class="cls-4" d="M697.17,674.08c-3.55,16.09-5.45,47.69-28.05,46.2-.72-.64,4.94-8.47-2.03-7.44-3.56.53-3.93,7.82-7.04,6.25-4.26-2.15-1.05-8.58,1.86-10.55,1.99-1.35,5.91-1.79,7.54-3.19,3.64-3.12,1.53-17.76,3.72-22.69l24-8.58Z"/>
        <path d="M561.16,539.7c.14,12.73,11.01,12.76,19.95,7.17,2.24-1.4,6.05-7.26,8.87-3.65,4.11,5.27-10.23,13.77-14.56,14.46-8.51,1.35-12.34-3.11-16.44-3.17-2.04-.03-3.94,1.69-7.31,1.5-5.55-.31-18.35-5.59-11.55-12.24,2.7-.79,6.3,4.74,9.76,4.79,2.13.03,5.74-1.39,6.05-3.81.79-6.15-8.46-6.28-10.77-11.99-6.38-15.73,23.22-14.33,26.39-7.4,3.42,7.49-3.77,12.89-10.37,14.33Z"/>
        <path class="cls-3" d="M645.81,439.91c1.21-.31,2.38-.46,3.52.22,1.22,1.12,1.47,2.57,1.65,4.13.63,5.55.35,15.72.02,21.5-.12,1.99-.94,9.87-1.67,10.71-.66.41-1.45.97-2.21,1.03-1.13.09-17.98-10.04-19.55-11.48-2.75-2.52-1.95-3.69-.38-6.75,1.95-3.81,14.98-18.42,18.62-19.36Z"/>
        <path class="cls-3" d="M535.21,439.84c1.57-.44,2.54.17,3.84.83,4.27,2.19,17.23,16.22,16.99,20.96-.11,1.64-1.47,2.27-2.5,3.19-1.99,1.77-12.9,9.37-15.13,10.45-1.9.92-3.11,1.5-4.54-.55-.79-1.14-1.62-9.28-1.75-11.45-.24-4-1.08-22.26,3.1-23.44Z"/>
        <path d="M597.12,498.44c9.57-1.85,8.44,18.49.63,18.94-9.01.52-7.17-17.67-.63-18.94Z"/>
        <path d="M553.36,496.01c13.2-3.96,7.4,24.14-2.21,15.89-3.09-2.66-2.55-14.46,2.21-15.89Z"/>
      </g>
      <g>
        <path class="cls-1" d="M304.86,484.37c-.88,1.39,2.25,12.68,3.26,14.23s7.42,4.24,9.75,5.93c16.17,11.76,18.93,26.76,13.68,45.72-3.65,13.19-11.13,22.55-24.4,26.93,1.49,8.79,5.3,16.94,7.43,25.53,5.58,22.48,6.32,48.64,5,71.72-.34,6.02-5.42,32.61-2.28,35.71.77.76,4.09,1.32,5.62,2.22,20.5,12.15,15.74,34.56-7.89,36.74-9.94.92-29.27-.51-36.7-7.84-2.2-2.17-3.34-5.93-5.78-7.83.73,9.43-1.23,15.65-10.73,18.57-11.52,3.53-38.25,3.6-48.27-3.72-3.53-2.58-4.81-6.78-8.25-9.13-3.11,2-3.3,5-6.74,7.34-1.07.73-3.18,1.79-4.41,2.19-10.87,3.55-46.32-.77-58.9-2.97-13.21-2.31-18.24-13.35-22.1-24.94-5.91-17.73-6.87-36.71-6.59-55.3-25.22-15.58-27.97-50.93-19.89-77.09,1.75-5.69,11.37-30.57,20.52-23.37,3.27,2.57-.31,16.79-.53,21.09-.28,5.58-.39,13.42.13,18.91.34,3.51,4.92,24.43,8.56,24.43,5.77-6.49,8.8-14.79,13.43-22.04,11.67-18.29,28.09-32.79,37.96-51.99,4.91-15.93,4.98-32.74,6.82-49.19-10.89-6.53-19.34-16.6-25.22-27.76-5.42-10.29-11.07-22.01-1.13-31.7,6.55-6.38,13.94-4.47,22.01-6.87,9.93-2.96,14.22-8.61,26.43-5.44,4.68,1.21,6.69,6.47,8.78,6.49,5.71-.96,11.75-2.92,17.46-3.65,8.67-1.11,19.26-1.06,27.95-.09,3.74.42,14.41,3.51,16.5,3.3.73-.08,9.35-5.8,12.98-6.84,12.7-3.63,14.58.9,25.39,3.95,8.9,2.51,23.8,1.62,26.22,13.38,1.52,7.36-1.63,31.04-6.06,37.3-5.34,7.54-12.36,1.1-16.04-4.53l-4,.59ZM303.91,476.82c2.45-2.89-10.67-24.93-13.59-28.07-3.96-4.25-7.87-6.07-13.63-4.1l8.63,5.79c9.11,5.78,10.96,16.78,15.94,24.49.71,1.1.99,2.22,2.64,1.89ZM252.76,666.2c.81,4.62-.59,11.21,0,16.09,8.49-3.2,17.73-8.6,23.54-15.66,1.6-1.94,3.96-7.59,5.92-8.17,8.66.25,2.59,10.49-.56,14.35-2.61,3.21-10.56,8.35-10.82,11.52l7.74,40.2c2.23,8.12,6.77,13.56,15.22,15.32,1.5.31,10.3,1.16,11,.66,3.35-2.39-3.91-10.73-2.52-12.02,9.31-3.15,8.01,12.89,13.6,12.43,5.5-1.4-2.24-11.92,2.65-13.17,3.57-.92,5.8,6.33,6.04,8.99,8.15-4.25-.38-13.8-5.51-17.19-4.41-2.92-9.76-1.66-10.8-7.35-2.1-11.45,2.59-32.49,3.13-45.15.93-21.71-.1-45.76-6.04-66.64-.73-2.58-4.68-15.37-5.6-16.68-2.37-3.36-15.74-1.79-20.15-2.13-12.59-1-29.76-6.45-37.98-16.48-2.04-2.49-7.33-10.56-2.88-12.82,4.25-2.16,6.48,4.76,8.63,7.07,13.76,14.72,41.95,12.6,44.93-8.77,1.48-10.56-1.01-7.83-6.92-12.74-9.88-8.21-12.58-23.1,3.29-24.73,3.53-.36,11.5-1.02,14.81-.85,18.15.94,7.88,24.66-2.87,29.48-.05,7.68.19,20.19,9.06,22.98,6.7,2.11,11.12-7.53,13.03-12.62,5.32-14.14,3.62-30.63-8.95-40.16-3.98-3.02-10.44-4.56-13-8.46-5.46-17.61-8.26-36.75-24.12-48.5-11.62-8.6-34.02-11.44-48.11-10.26-4.38.37-19.37,2.77-23,4.23-.79.32-1.47.62-1.87,1.43-.18,17.72-3.89,43.24-18.14,55.31-1.03.87-3.37,1.5-3.57,1.79-1.1,1.68-2.05,25.93-2.72,30.7-1.82,13.11-5.3,25.19-12.32,36.45,5.81,10.35,7.83,19.22,5.58,31.07-3.6,18.94-20.22,32.24-39.71,30.26-3.07-.31-6.94-3.13-9.63-.37-1.78,1.82-5.61,17.48-6.29,20.93-3.22,16.27-3.18,31.04-.02,47.36,1.83,9.44,7.14,28.94,17.09,32.42l38.78,4.54c1.51-1.53-5.73-10.04-.58-9.77s8.71,5.86,8.01,10.6c13.8,1.74.18-8.96,7.72-12.31,3.9,2.01,4.26,5.81,6.09,8.78,2.22,3.61,2.88-2.72,2.63-5.05-1.37-13.07-26.36-9.79-27.23-13.43.86-7.33,7.15-11.48,10.1-18.69,7.03-17.16,1.66-42.97-18.45-47.86-5.34-1.3-12.13,1.23-10.46-7.05,18.81-5.5,37.85,12.74,39.48,30.84,1.28,14.22-2.7,24.14-7.48,37.02l17.39,6.29c.95-1.03-3.44-16.79-3.9-19.61-2.45-14.91-5.28-32.74-6.82-47.64-.36-3.47-1.7-13.91.39-16.1,4.55-4.75,6.29,9.79,6.77,12.24,4.05,20.77,5.1,42.22,9.72,62.89,2.15,9.6,6.33,27.59,16.37,31.49,2.41.94,15.63,3.82,16.1,1.1-.75-3.42-6.64-12.54,1.22-10.19,6.05,1.81,3.8,13.95,12.46,11.45,3.03-3.09-3.66-11.31-.36-13.7,4.28-3.1,7.28,10.24,8.69,10.33,9.06-5.52-1.21-16.52-7.83-19.37-3.01-1.29-9.17-1.24-9.88-4.97-.07-17.04.83-34.05,2.65-50.95.65-6.5,6.09-7.59,7.23-1.02ZM297.17,564.44l-3.14.27c-.87,1.96-10.55,6.82-9.91,8.22,1.49,3.27,15.41.41,17.31-3.29l-4.26-5.21ZM99.27,581.62c-2.2-.42-1.43.48-2.01,1.65-9.05,18.35-8.78,45.65,1.88,63.26,2.08,3.43,5.55,9.01,10.04,8.53l2.5-13.58c-7.23-11.09-12.39-24.64-13.25-37.97-.48-7.34.74-14.6.85-21.9ZM262.6,688.12l-10.69,3.81-.67,20.33c.61,1.77,6.07,2.88,8.24,4.14,1.08.63,10.16,8.54,10.6,7.96l-7.48-36.24Z"/>
        <path class="cls-4" d="M252.76,666.2c-1.15-6.57-6.58-5.48-7.23,1.02-1.82,16.9-2.72,33.9-2.65,50.95.71,3.73,6.88,3.67,9.88,4.97,6.62,2.85,16.89,13.84,7.83,19.37-1.41-.09-4.41-13.43-8.69-10.33-3.31,2.39,3.38,10.62.36,13.7-8.66,2.5-6.41-9.64-12.46-11.45-7.85-2.35-1.97,6.77-1.22,10.19-.47,2.72-13.69-.16-16.1-1.1-10.04-3.91-14.22-21.89-16.37-31.49-4.63-20.67-5.67-42.12-9.72-62.89-.48-2.44-2.21-16.99-6.77-12.24-2.09,2.18-.75,12.62-.39,16.1,1.54,14.91,4.37,32.74,6.82,47.64.46,2.82,4.85,18.57,3.9,19.61l-17.39-6.29c4.78-12.88,8.76-22.79,7.48-37.02-1.63-18.1-20.66-36.34-39.48-30.84-1.67,8.28,5.12,5.75,10.46,7.05,20.11,4.89,25.48,30.69,18.45,47.86-2.95,7.21-9.24,11.37-10.1,18.69.86,3.64,25.86.36,27.23,13.43.24,2.33-.41,8.65-2.63,5.05-1.83-2.97-2.19-6.77-6.09-8.78-7.54,3.35,6.08,14.04-7.72,12.31.7-4.74-3.1-10.35-8.01-10.6s2.09,8.24.58,9.77l-38.78-4.54c-9.95-3.48-15.26-22.98-17.09-32.42-3.16-16.32-3.2-31.09.02-47.36.68-3.46,4.51-19.11,6.29-20.93,2.69-2.76,6.55.06,9.63.37,19.49,1.98,36.11-11.32,39.71-30.26,2.25-11.86.23-20.73-5.58-31.07,7.02-11.27,10.5-23.35,12.32-36.45.66-4.77,1.61-29.02,2.72-30.7.19-.3,2.54-.92,3.57-1.79,14.25-12.07,17.96-37.59,18.14-55.31.4-.8,1.08-1.11,1.87-1.43,3.63-1.46,18.62-3.86,23-4.23,14.09-1.18,36.49,1.66,48.11,10.26,15.86,11.74,18.66,30.88,24.12,48.5,2.56,3.9,9.01,5.44,13,8.46,12.57,9.53,14.27,26.02,8.95,40.16-1.91,5.09-6.33,14.73-13.03,12.62-8.87-2.79-9.11-15.3-9.06-22.98,10.74-4.81,21.02-28.54,2.87-29.48-3.31-.17-11.28.49-14.81.85-15.87,1.63-13.17,16.52-3.29,24.73,5.91,4.91,8.4,2.18,6.92,12.74-2.98,21.36-31.17,23.49-44.93,8.77-2.16-2.31-4.38-9.23-8.63-7.07-4.45,2.26.84,10.33,2.88,12.82,8.22,10.03,25.39,15.49,37.98,16.48,4.41.35,17.78-1.23,20.15,2.13.92,1.31,4.87,14.1,5.6,16.68,5.95,20.88,6.97,44.93,6.04,66.64-.54,12.66-5.23,33.7-3.13,45.15,1.04,5.69,6.39,4.44,10.8,7.35,5.13,3.39,13.66,12.94,5.51,17.19-.24-2.66-2.47-9.91-6.04-8.99-4.9,1.26,2.85,11.78-2.65,13.17-5.59.46-4.28-15.58-13.6-12.43-1.39,1.29,5.87,9.63,2.52,12.02-.69.49-9.5-.35-11-.66-8.44-1.75-12.99-7.2-15.22-15.32l-7.74-40.2c.26-3.17,8.21-8.32,10.82-11.52,3.14-3.86,9.22-14.1.56-14.35-1.96.58-4.32,6.23-5.92,8.17-5.81,7.06-15.05,12.46-23.54,15.66-.59-4.88.81-11.47,0-16.09ZM230.32,472.06c-9.74.68-19.94,10.97-23.11,19.87-6.17,17.31,5.78,47.39,27.69,38.42,23.73-9.72,21.48-60.11-4.58-58.28ZM282.24,485.2c-7.66,1.17-5.8,19.34,1.99,18.43,7.93-.93,5.87-19.63-1.99-18.43Z"/>
        <path class="cls-4" d="M99.27,581.62c-.12,7.3-1.33,14.55-.85,21.9.87,13.32,6.02,26.87,13.25,37.97l-2.5,13.58c-4.48.48-7.96-5.1-10.04-8.53-10.66-17.61-10.93-44.91-1.88-63.26.58-1.18-.19-2.07,2.01-1.65Z"/>
        <path class="cls-4" d="M262.6,688.12l7.48,36.24c-.44.58-9.51-7.33-10.6-7.96-2.17-1.26-7.63-2.36-8.24-4.14l.67-20.33,10.69-3.81Z"/>
        <path class="cls-4" d="M303.91,476.82c-1.65.33-1.93-.79-2.64-1.89-4.99-7.71-6.84-18.7-15.94-24.49l-8.63-5.79c5.76-1.97,9.67-.16,13.63,4.1,2.93,3.14,16.05,25.18,13.59,28.07Z"/>
        <path class="cls-4" d="M297.17,564.44l4.26,5.21c-1.89,3.69-15.82,6.56-17.31,3.29-.64-1.4,9.05-6.26,9.91-8.22l3.14-.27Z"/>
        <path class="cls-1" d="M230.32,472.06c26.06-1.83,28.32,48.56,4.58,58.28-21.9,8.97-33.85-21.11-27.69-38.42,3.17-8.9,13.37-19.18,23.11-19.87ZM229.34,495.04c-5.1,2.57-3.61,18.23,2.25,17.13,5.78-1.09,5.26-16.35-2.25-17.13Z"/>
        <path class="cls-1" d="M282.24,485.2c7.86-1.2,9.92,17.5,1.99,18.43-7.78.91-9.65-17.26-1.99-18.43Z"/>
        <path class="cls-4" d="M229.34,495.04c7.51.78,8.03,16.04,2.25,17.13-5.86,1.1-7.35-14.56-2.25-17.13Z"/>
      </g>
    </g>
  </g>
</svg>