<?xml version="1.0" encoding="UTF-8"?>
<svg id="Layer_2" data-name="Layer 2" xmlns="http://www.w3.org/2000/svg" xmlns:xlink="http://www.w3.org/1999/xlink" viewBox="0 0 1169.09 386.93">
  <defs>
    <style>
      .cls-1 {
        fill: #ed4001;
      }

      .cls-2 {
        fill: #ed4001;
      }

      .cls-3 {
        fill: url(#New_Gradient_Swatch);
      }
    </style>
    <linearGradient id="New_Gradient_Swatch" data-name="New Gradient Swatch" x1="0" y1="193.46" x2="543.31" y2="193.46" gradientUnits="userSpaceOnUse">
      <stop offset=".17" stop-color="#ffbd7a"/>
      <stop offset=".57" stop-color="#ed4001"/>
    </linearGradient>
  </defs>
  <g id="Layer_1-2" data-name="Layer 1">
    <g>
      <g>
        <path class="cls-1" d="M611.25,146.16h-39.9l-7.05,18.3h-36l45.9-105h34.8l45.9,105h-36.6l-7.05-18.3ZM601.5,120.66l-10.2-26.4-10.2,26.4h20.4Z"/>
        <path class="cls-1" d="M728.55,109.11h30.75v44.4c-12.75,8.7-30.3,13.35-45.75,13.35-33.9,0-58.65-22.65-58.65-54.9s24.75-54.9,59.4-54.9c20.7,0,37.35,7.2,48,20.25l-22.65,19.95c-6.6-7.65-14.25-11.55-23.55-11.55-15.6,0-25.5,10.05-25.5,26.25s9.9,26.25,25.05,26.25c4.35,0,8.55-.75,12.9-2.55v-26.55Z"/>
        <path class="cls-1" d="M774.45,59.46h35.4v105h-35.4V59.46Z"/>
        <path class="cls-1" d="M826.95,59.46h35.4v77.55h47.4v27.45h-82.8V59.46Z"/>
        <path class="cls-1" d="M919.5,59.46h35.4v105h-35.4V59.46Z"/>
        <path class="cls-1" d="M994.8,86.91h-30.75v-27.45h96.9v27.45h-30.75v77.55h-35.4v-77.55Z"/>
        <path class="cls-1" d="M1129.49,126.36v38.1h-35.4v-38.55l-39.6-66.45h37.35l21.45,36.3,21.6-36.3h34.2l-39.6,66.9Z"/>
        <path class="cls-2" d="M746.09,279.06c0,24.3-18.6,39.6-47.85,39.6h-15.15v25.8h-35.4v-105h50.55c29.25,0,47.85,15.3,47.85,39.6ZM710.4,279.06c0-7.65-4.65-12.3-14.4-12.3h-12.9v24.6h12.9c9.75,0,14.4-4.65,14.4-12.3Z"/>
        <path class="cls-2" d="M757.65,239.46h35.4v77.55h47.4v27.45h-82.8v-105Z"/>
        <path class="cls-2" d="M848.55,297.21v-57.75h35.4v56.7c0,16.05,6.15,22.05,16.05,22.05s16.05-6,16.05-22.05v-56.7h34.8v57.75c0,31.5-18.9,49.65-51.15,49.65s-51.15-18.15-51.15-49.65Z"/>
        <path class="cls-2" d="M960.45,336.06l11.4-25.8c9.9,5.85,23.1,9.6,34.65,9.6,10.05,0,13.65-2.1,13.65-5.7,0-13.2-58.05-2.55-58.05-41.7,0-19.5,16.35-35.4,48.9-35.4,14.1,0,28.65,3,39.6,9.15l-10.65,25.65c-10.35-5.25-20.1-7.8-29.25-7.8-10.35,0-13.65,3-13.65,6.6,0,12.6,58.05,2.1,58.05,40.8,0,19.2-16.35,35.4-48.9,35.4-17.55,0-35.25-4.35-45.75-10.8Z"/>
      </g>
      <path class="cls-3" d="M474.55,203.9c1.88-.58,1.61-3.62,1.29-5.26-2.15-10.91-11.78-25.86-14.83-37.2-2.97-11.03,2.07-16.3,13.34-14.34l64.22,63.78c4.74,4.85,5.83,11.28,3.72,17.75-2.04,6.27-28.61,29.93-35.26,36.74-8.26,8.47-21.21,25.92-29.93,32.07-6.15,4.33-13.53,2.64-17.24-3.84-2.82-4.94-1.85-6.49.02-11.38,2.34-6.12,16.53-30.15,16.23-33.82-.07-.88-.94-2.51-1.55-2.51h-54c-.66,0-3.07,2.97-2.33,4.22l28.76,126.41c-.92,5.94-3.34,8.87-9.38,9.42-11.55,1.05-45.21,1.58-55.99-.11-8.54-1.33-11.73-7.7-14.06-14.94-11.22-34.93-14.32-75.3-24.99-110.01-.38-1.24-1.01-4-1.75-4.74-3-3.01-19.93,3.07-24.53,4.49-55.51,17.06-108.57,48.48-154,83.94-18.32,14.3-35.15,35.7-59,40.05-8.81,1.61-30.84,5.22-27.58-9.51,8.04-20.73,22.9-40.71,31.07-61.01,2.07-5.16-.87-6.64-5.25-9.19l-55.77-.23c-8.98-2.33-9.38-16.29-.15-17.73,12.55-1.96,47.42,4.02,55.46-4.54,7.62-8.11,1.39-20.3-9.52-21.52-26.07-2.93-57.32,2.24-83.95-.05-10.2-2.69-10.09-15.26,0-17.89l96.97-.03c14.88-1.79,15.33-21.69,1.53-24.58-15.98-3.35-41.29,1.19-58.6-.4-10.81-.99-13.12-12.7-3.51-17.6l110.59-.41c7.29-.25,13.71-4.36,17.66-10.34,18.55-28.08,30.51-66.26,49.2-94.8,13.13-26.6,24.82-55.85,40.58-80.63,3.57-5.62,2.63-8.45,10.33-11.46,16.49-6.45,55.09,1.05,74.11-1.71,13.02,2.8,15.19,10.56,18.13,21.87,12.62,48.65,22,98.38,33.73,147.27,2.56,10.69,5.8,21.25,7.95,32.05l1.28,1.72h67ZM327.82,205.66c.87-.83,1.07-2.6.8-3.79-10.88-33.76-14.11-72.84-24.84-106.2-1.48-4.59-4.03-4.98-7.78-2.06l-52.47,112.26c-3.15,9.22,5.58,7.26,12.02,7.02,19.08-.69,42.95-2.78,62-5,2.07-.24,9.2-1.21,10.28-2.23Z"/>
    </g>
  </g>
</svg>